<svg width="26" height="26" viewBox="0 0 26 26" fill="none" xmlns="http://www.w3.org/2000/svg">
<g clip-path="url(#clip0_3_46)">
<path fill-rule="evenodd" clip-rule="evenodd" d="M12.9986 0C5.82015 0 0 5.96738 0 13.3297C0 19.2183 3.72449 24.2139 8.89062 25.9771C9.54085 26.0992 9.77779 25.6876 9.77779 25.3338C9.77779 25.0182 9.76697 24.1796 9.76048 23.0675C6.14419 23.8728 5.38144 21.2805 5.38144 21.2805C4.79017 19.7413 3.93762 19.3314 3.93762 19.3314C2.75726 18.5039 4.02688 18.5206 4.02688 18.5206C5.33167 18.6154 6.01814 19.8944 6.01814 19.8944C7.17795 21.931 9.06102 21.3426 9.80159 21.002C9.92006 20.1407 10.2549 19.5533 10.6271 19.22C7.74055 18.8838 4.70524 17.7396 4.70524 12.6325C4.70524 11.1777 5.21212 9.98741 6.04357 9.05562C5.90995 8.7184 5.46366 7.36341 6.17069 5.5281C6.17069 5.5281 7.26234 5.1698 9.74588 6.89474C10.7829 6.59911 11.8951 6.45102 13.0003 6.44603C14.1044 6.45102 15.2166 6.59911 16.2552 6.89474C18.7371 5.1698 19.8266 5.5281 19.8266 5.5281C20.5358 7.36341 20.0895 8.7184 19.9559 9.05562C20.789 9.98741 21.2926 11.1777 21.2926 12.6325C21.2926 17.7529 18.2524 18.8794 15.3561 19.2094C15.8235 19.621 16.239 20.4341 16.239 21.6781C16.239 23.4596 16.2233 24.8973 16.2233 25.3338C16.2233 25.691 16.457 26.1058 17.117 25.9755C22.2788 24.209 26 19.2166 26 13.3297C26 5.96738 20.1793 0 12.9986 0Z" fill="#010101"/>
</g>
<defs>
<clipPath id="clip0_3_46">
<rect width="26" height="26" fill="white"/>
</clipPath>
</defs>
</svg>
