<svg width="26" height="26" viewBox="0 0 26 26" fill="none" xmlns="http://www.w3.org/2000/svg">
<path fill-rule="evenodd" clip-rule="evenodd" d="M13 19.5C16.5898 19.5 19.5 16.5898 19.5 13C19.5 9.41015 16.5898 6.5 13 6.5C9.41015 6.5 6.5 9.41015 6.5 13C6.5 16.5898 9.41015 19.5 13 19.5ZM13 17.3333C15.3932 17.3333 17.3333 15.3932 17.3333 13C17.3333 10.6068 15.3932 8.66667 13 8.66667C10.6068 8.66667 8.66667 10.6068 8.66667 13C8.66667 15.3932 10.6068 17.3333 13 17.3333Z" fill="#0F0F0F"/>
<path d="M19.5 5.41667C18.9017 5.41667 18.4167 5.9017 18.4167 6.50001C18.4167 7.09831 18.9017 7.58334 19.5 7.58334C20.0983 7.58334 20.5833 7.09831 20.5833 6.50001C20.5833 5.9017 20.0983 5.41667 19.5 5.41667Z" fill="#0F0F0F"/>
<path fill-rule="evenodd" clip-rule="evenodd" d="M1.7918 4.63239C1.08334 6.02282 1.08334 7.84299 1.08334 11.4833V14.5167C1.08334 18.157 1.08334 19.9772 1.7918 21.3676C2.41498 22.5906 3.40935 23.585 4.63241 24.2082C6.02283 24.9167 7.84301 24.9167 11.4833 24.9167H14.5167C18.157 24.9167 19.9772 24.9167 21.3676 24.2082C22.5907 23.585 23.585 22.5906 24.2082 21.3676C24.9167 19.9772 24.9167 18.157 24.9167 14.5167V11.4833C24.9167 7.84299 24.9167 6.02282 24.2082 4.63239C23.585 3.40933 22.5907 2.41496 21.3676 1.79178C19.9772 1.08333 18.157 1.08333 14.5167 1.08333H11.4833C7.84301 1.08333 6.02283 1.08333 4.63241 1.79178C3.40935 2.41496 2.41498 3.40933 1.7918 4.63239ZM14.5167 3.24999H11.4833C9.62742 3.24999 8.36578 3.25168 7.3906 3.33135C6.44069 3.40896 5.95492 3.54963 5.61605 3.7223C4.80068 4.13775 4.13777 4.80067 3.72231 5.61604C3.54965 5.95491 3.40898 6.44067 3.33137 7.39058C3.2517 8.36577 3.25001 9.62741 3.25001 11.4833V14.5167C3.25001 16.3726 3.2517 17.6342 3.33137 18.6094C3.40898 19.5594 3.54965 20.0451 3.72231 20.384C4.13777 21.1993 4.80068 21.8622 5.61605 22.2777C5.95492 22.4503 6.44069 22.5911 7.3906 22.6686C8.36578 22.7483 9.62742 22.75 11.4833 22.75H14.5167C16.3726 22.75 17.6342 22.7483 18.6094 22.6686C19.5594 22.5911 20.0451 22.4503 20.384 22.2777C21.1993 21.8622 21.8622 21.1993 22.2777 20.384C22.4504 20.0451 22.5911 19.5594 22.6687 18.6094C22.7483 17.6342 22.75 16.3726 22.75 14.5167V11.4833C22.75 9.62741 22.7483 8.36577 22.6687 7.39058C22.5911 6.44067 22.4504 5.95491 22.2777 5.61604C21.8622 4.80067 21.1993 4.13775 20.384 3.7223C20.0451 3.54963 19.5594 3.40896 18.6094 3.33135C17.6342 3.25168 16.3726 3.24999 14.5167 3.24999Z" fill="black"/>
</svg>
