<svg width="26" height="26" viewBox="0 0 26 26" fill="none" xmlns="http://www.w3.org/2000/svg">
<g clip-path="url(#clip0_3_114)">
<path fill-rule="evenodd" clip-rule="evenodd" d="M26 26H20.8V16.9013C20.8 14.4053 19.6989 13.0127 17.7242 13.0127C15.5753 13.0127 14.3 14.4638 14.3 16.9013V26H9.1V9.1H14.3V11.0005C14.3 11.0005 15.9315 8.1377 19.6079 8.1377C23.2856 8.1377 26 10.3819 26 15.0255V26ZM3.1746 6.39717C1.4209 6.39717 0 4.96465 0 3.19795C0 1.43255 1.4209 0 3.1746 0C4.927 0 6.34789 1.43255 6.34789 3.19795C6.34919 4.96465 4.927 6.39717 3.1746 6.39717ZM0 26H6.5V9.1H0V26Z" fill="black"/>
</g>
<defs>
<clipPath id="clip0_3_114">
<rect width="26" height="26" fill="white"/>
</clipPath>
</defs>
</svg>
