<svg width="26" height="26" viewBox="0 0 26 26" fill="none" xmlns="http://www.w3.org/2000/svg">
<path d="M14.0833 13C14.0833 16.5898 11.1732 19.5 7.58334 19.5C3.99349 19.5 1.08334 16.5898 1.08334 13C1.08334 9.41015 3.99349 6.5 7.58334 6.5C11.1732 6.5 14.0833 9.41015 14.0833 13Z" fill="#0F0F0F"/>
<path d="M24.9167 13C24.9167 15.9915 24.4317 18.4167 23.8333 18.4167C23.235 18.4167 22.75 15.9915 22.75 13C22.75 10.0085 23.235 7.58333 23.8333 7.58333C24.4317 7.58333 24.9167 10.0085 24.9167 13Z" fill="#0F0F0F"/>
<path d="M18.4167 19.5C20.2116 19.5 21.6667 16.5898 21.6667 13C21.6667 9.41015 20.2116 6.5 18.4167 6.5C16.6217 6.5 15.1667 9.41015 15.1667 13C15.1667 16.5898 16.6217 19.5 18.4167 19.5Z" fill="#0F0F0F"/>
</svg>
