<svg width="26" height="26" viewBox="0 0 26 26" fill="none" xmlns="http://www.w3.org/2000/svg">
<path d="M24.9496 7.88701L21.886 10.9506C21.2744 18.0479 15.289 23.5625 8.12499 23.5625C6.64986 23.5625 5.43418 23.3286 4.51164 22.8673C3.76713 22.4951 3.46214 22.0955 3.38647 21.9819C3.31858 21.8801 3.27457 21.7642 3.25773 21.643C3.24089 21.5218 3.25166 21.3983 3.28923 21.2818C3.3268 21.1653 3.3902 21.0589 3.47469 20.9703C3.55919 20.8818 3.6626 20.8135 3.7772 20.7705C3.80333 20.7606 6.19927 19.8404 7.7478 18.0883C6.78461 17.4025 5.93688 16.5675 5.23651 15.6148C3.84429 13.7254 2.37184 10.4441 3.26309 5.54215C3.28961 5.39626 3.35555 5.26042 3.45377 5.14933C3.55198 5.03824 3.67872 4.95615 3.82025 4.91194C3.96178 4.86773 4.11271 4.8631 4.25669 4.89854C4.40067 4.93397 4.53221 5.00814 4.63706 5.11299C4.67286 5.14869 8.05383 8.48191 12.1869 9.55858L12.1875 8.9371C12.1962 7.63622 12.7212 6.39205 13.6469 5.47805C14.5726 4.56404 15.8234 4.05502 17.1243 4.06285C17.9694 4.07455 18.797 4.30525 19.5263 4.73241C20.2556 5.15956 20.8616 5.76857 21.2852 6.49995L24.375 6.5C24.5357 6.5 24.6928 6.54765 24.8264 6.63693C24.96 6.7262 25.0641 6.8531 25.1256 7.00156C25.1871 7.15002 25.2032 7.31338 25.1719 7.47099C25.1406 7.6286 25.0632 7.77338 24.9496 7.88701Z" fill="black"/>
</svg>
