<svg width="631" height="524" viewBox="0 0 631 524" fill="none" xmlns="http://www.w3.org/2000/svg">
<g clip-path="url(#clip0_6_178)">
<path d="M631 0H0V524H631V0Z" fill="#121314"/>
<path d="M587.158 417.126C583.633 442.714 574.079 467.165 561.011 489.351C558.618 493.418 556.104 497.41 553.488 501.318H82.6116C80.2427 497.468 77.9512 493.466 75.7495 489.351C62.509 464.592 52.5513 435.721 48.8321 411.079C42.6315 369.98 51.0443 332.98 76.3616 300.814C90.4476 282.919 107.869 273.966 126.975 264.131C96.8212 166.383 189.484 80.1056 271.179 52.2236C383.541 13.8755 564.755 41.1025 570.686 193.391C572.185 231.816 565.394 267.429 541.452 297.505C541.932 297.368 542.333 296.514 542.701 296.165C580.345 318.641 593.018 374.583 587.158 417.126Z" fill="#EEEBFF" fill-opacity="0.1"/>
<path d="M592.671 489.35H38.3296V501.318H592.671V489.35Z" fill="#545454"/>
<path d="M196.756 236.748L176.431 240.328C179.815 248.38 178.618 257.265 176.952 265.302C184.011 265.559 191.187 268.753 198.062 266.836C201.455 257.578 199.779 246.088 196.756 236.748Z" fill="#92A32B"/>
<path d="M197.68 234.19L177.355 237.77C180.738 245.822 179.541 254.708 177.876 262.744C184.935 263.002 192.111 266.195 198.986 264.278C202.379 255.02 200.703 243.531 197.68 234.19Z" fill="#BEE41B"/>
<path d="M182.611 244.395C186.511 243.209 190.475 242.632 194.518 242.621C195.014 242.62 195.014 241.767 194.518 241.768C190.408 241.78 186.371 242.368 182.406 243.574C181.928 243.719 182.132 244.541 182.611 244.395Z" fill="#92A32B"/>
<path d="M183.535 247.72C188.364 246.211 193.358 245.652 198.315 244.907C198.805 244.834 198.596 244.012 198.11 244.085C193.154 244.829 188.159 245.389 183.33 246.898C182.853 247.047 183.056 247.869 183.535 247.72Z" fill="#92A32B"/>
<path d="M182.74 251.059C187.375 250.751 191.731 248.789 196.237 247.719C196.722 247.604 196.516 246.782 196.032 246.898C191.598 247.951 187.301 249.904 182.74 250.206C182.246 250.24 182.244 251.092 182.74 251.059Z" fill="#92A32B"/>
<path d="M184.921 253.601C189.685 252.283 194.462 251.025 199.239 249.765C199.722 249.638 199.518 248.816 199.035 248.943C194.258 250.202 189.481 251.461 184.716 252.779C184.235 252.912 184.439 253.734 184.921 253.601Z" fill="#92A32B"/>
<path d="M420.379 93.1462L438.811 99.9547C434.536 106.876 434.413 115.356 434.843 123.125C428.233 122.159 421.104 123.907 414.968 120.946C413.098 111.743 416.262 101.329 420.379 93.1462Z" fill="#92A32B"/>
<path d="M419.875 90.606L438.306 97.4151C434.032 104.336 433.908 112.817 434.339 120.586C427.729 119.619 420.599 121.367 414.464 118.407C412.595 109.203 415.758 98.7892 419.875 90.606Z" fill="#FDE427"/>
<path d="M432.486 102.687C429.02 100.915 425.409 99.7003 421.645 98.9982C421.183 98.912 421.301 98.1179 421.764 98.2046C425.59 98.9178 429.268 100.156 432.792 101.956C433.217 102.173 432.914 102.904 432.486 102.687Z" fill="#92A32B"/>
<path d="M431.163 105.625C426.875 103.395 422.302 102.019 417.789 100.479C417.343 100.326 417.653 99.5979 418.094 99.7481C422.607 101.289 427.181 102.664 431.468 104.894C431.892 105.114 431.588 105.846 431.163 105.625Z" fill="#92A32B"/>
<path d="M431.438 108.871C427.164 107.791 423.38 105.22 419.333 103.454C418.897 103.264 419.204 102.533 419.638 102.723C423.621 104.462 427.351 107.015 431.557 108.077C432.012 108.192 431.895 108.986 431.438 108.871Z" fill="#92A32B"/>
<path d="M429.053 110.866C424.799 108.824 420.525 106.835 416.252 104.846C415.82 104.645 416.125 103.914 416.557 104.115C420.831 106.105 425.105 108.094 429.358 110.135C429.788 110.341 429.483 111.072 429.053 110.866Z" fill="#92A32B"/>
<path d="M182.002 135.043L161.676 138.624C165.06 146.675 163.863 155.561 162.198 163.597C169.256 163.855 176.433 167.049 183.308 165.132C186.7 155.873 185.024 144.383 182.002 135.043Z" fill="#38B6FF"/>
<path d="M182.926 132.485L162.6 136.065C165.984 144.117 164.787 153.003 163.121 161.039C170.18 161.297 177.357 164.491 184.231 162.574C184.051 153.847 184.667 142.595 182.926 132.485Z" fill="#46F2F2"/>
<path d="M168.979 144.055C171.98 142.869 175.031 142.292 178.143 142.28C178.525 142.279 178.525 141.426 178.143 141.428C174.98 141.439 171.872 142.028 168.821 143.232C168.453 143.378 168.61 144.2 168.979 144.055Z" fill="#38B6FF"/>
<path d="M169.69 147.379C173.407 145.871 177.251 145.31 181.065 144.566C181.443 144.492 181.282 143.671 180.908 143.744C177.093 144.488 173.249 145.048 169.532 146.556C169.165 146.706 169.321 147.528 169.69 147.379Z" fill="#38B6FF"/>
<path d="M169.078 150.718C172.646 150.41 175.999 148.449 179.466 147.378C179.84 147.263 179.682 146.442 179.309 146.556C175.897 147.61 172.589 149.562 169.078 149.865C168.698 149.898 168.696 150.751 169.078 150.718Z" fill="#38B6FF"/>
<path d="M170.756 153.26C174.423 151.943 178.1 150.684 181.777 149.424C182.149 149.297 181.991 148.475 181.62 148.602C177.943 149.862 174.266 151.12 170.599 152.438C170.228 152.571 170.386 153.393 170.756 153.26Z" fill="#38B6FF"/>
<path d="M227.834 135.49L207.509 139.07C210.892 147.122 209.695 156.008 208.03 164.044C215.088 164.302 222.266 167.495 229.14 165.579C232.532 156.32 230.857 144.831 227.834 135.49Z" fill="#92A32B"/>
<path d="M228.758 132.933L208.432 136.513C211.816 144.565 210.619 153.45 208.954 161.487C216.012 161.745 223.189 164.938 230.064 163.022C233.456 153.763 231.781 142.274 228.758 132.933Z" fill="#BEE41B"/>
<path d="M213.689 143.138C217.589 141.952 221.553 141.375 225.596 141.364C226.092 141.362 226.092 140.51 225.596 140.511C221.486 140.523 217.448 141.111 213.484 142.317C213.007 142.462 213.21 143.284 213.689 143.138Z" fill="#92A32B"/>
<path d="M214.613 146.462C219.442 144.954 224.436 144.393 229.393 143.649C229.883 143.576 229.673 142.754 229.188 142.827C224.232 143.572 219.237 144.132 214.408 145.64C213.931 145.79 214.134 146.612 214.613 146.462Z" fill="#92A32B"/>
<path d="M213.817 149.802C218.453 149.494 222.809 147.532 227.314 146.462C227.799 146.347 227.593 145.525 227.109 145.64C222.676 146.693 218.379 148.646 213.817 148.949C213.324 148.982 213.322 149.834 213.817 149.802Z" fill="#92A32B"/>
<path d="M215.999 152.344C220.763 151.026 225.54 149.767 230.317 148.508C230.799 148.38 230.595 147.559 230.112 147.686C225.335 148.945 220.558 150.204 215.794 151.522C215.312 151.655 215.516 152.477 215.999 152.344Z" fill="#92A32B"/>
<path d="M157.732 213.525L140.178 214.548C142.486 222.719 139.597 232.23 142.568 240.556C147.434 239.901 153.853 240.315 158.586 238.499C158.947 230.965 159.944 220.506 157.732 213.525Z" fill="#D3B81A"/>
<path d="M159.118 211.479L141.564 212.502C143.872 220.673 140.983 230.185 143.954 238.51C148.82 237.854 155.239 238.269 159.972 236.453C160.333 228.919 161.33 218.46 159.118 211.479Z" fill="#FDE427"/>
<path d="M145.14 220.612C146.164 221.094 147.634 220.594 148.668 220.382C150.249 220.059 151.82 219.6 153.417 219.391C153.904 219.328 153.91 218.475 153.417 218.539C152.006 218.724 150.615 219.092 149.223 219.398C148.503 219.557 147.783 219.705 147.057 219.82C146.639 219.887 145.94 220.068 145.529 219.875C145.077 219.663 144.685 220.397 145.14 220.612Z" fill="#D3B81A"/>
<path d="M144.18 223.738C148.531 223.185 152.773 221.948 156.984 220.654C157.462 220.507 157.258 219.685 156.779 219.832C152.638 221.104 148.459 222.342 144.18 222.885C143.692 222.947 143.687 223.8 144.18 223.738Z" fill="#D3B81A"/>
<path d="M145.565 226.039C147.952 225.684 150.253 224.82 152.596 224.234C153.081 224.113 152.875 223.292 152.392 223.412C150.12 223.981 147.88 224.843 145.566 225.187C145.081 225.259 145.075 226.112 145.565 226.039Z" fill="#D3B81A"/>
<path d="M146.156 227.362C146.458 227.895 147.171 227.829 147.658 227.792C148.673 227.715 149.683 227.461 150.672 227.212C152.799 226.675 154.913 226.017 156.984 225.257C157.453 225.085 157.252 224.262 156.779 224.435C155.04 225.074 153.27 225.622 151.493 226.116C150.485 226.398 149.469 226.653 148.443 226.835C148.211 226.876 146.931 227.125 146.822 226.932C146.559 226.468 145.892 226.895 146.156 227.362Z" fill="#D3B81A"/>
<path d="M146.849 228.211C146.612 228.623 146.384 228.665 146.335 229.193C146.314 229.424 146.526 229.62 146.72 229.619C149.287 229.6 151.819 229.106 154.212 228.069C154.669 227.871 154.47 227.047 154.008 227.247C151.675 228.257 149.223 228.748 146.72 228.766C146.848 228.908 146.977 229.05 147.105 229.192C147.116 229.074 147.448 228.755 147.514 228.64C147.782 228.176 147.115 227.748 146.849 228.211Z" fill="#D3B81A"/>
<path d="M149.297 230.584C150.576 231.531 152.432 231.164 153.879 231.153C154.375 231.149 154.375 230.297 153.879 230.301C152.586 230.311 150.823 230.689 149.685 229.848C149.271 229.541 148.887 230.28 149.297 230.584Z" fill="#D3B81A"/>
<path d="M496.976 173.028L479.422 174.051C481.73 182.223 478.841 191.735 481.812 200.06C486.678 199.404 493.097 199.819 497.83 198.002C498.191 190.469 499.189 180.01 496.976 173.028Z" fill="#D3B81A"/>
<path d="M498.362 170.982L480.808 172.005C483.116 180.177 480.228 189.689 483.198 198.014C488.064 197.358 494.483 197.773 499.216 195.956C499.577 188.423 500.575 177.964 498.362 170.982Z" fill="#FDE427"/>
<path d="M484.385 180.115C485.409 180.598 486.877 180.098 487.913 179.886C489.493 179.563 491.064 179.104 492.662 178.895C493.149 178.831 493.154 177.978 492.662 178.042C491.25 178.228 489.86 178.595 488.467 178.902C487.748 179.06 487.027 179.209 486.302 179.324C485.883 179.391 485.184 179.573 484.774 179.38C484.321 179.167 483.929 179.9 484.385 180.115Z" fill="#D3B81A"/>
<path d="M483.424 183.242C487.775 182.69 492.017 181.451 496.228 180.158C496.706 180.011 496.503 179.189 496.024 179.336C491.882 180.608 487.704 181.846 483.424 182.389C482.937 182.451 482.931 183.304 483.424 183.242Z" fill="#D3B81A"/>
<path d="M484.81 185.543C487.196 185.189 489.497 184.325 491.84 183.738C492.325 183.617 492.119 182.795 491.636 182.916C489.363 183.484 487.124 184.347 484.809 184.69C484.325 184.763 484.319 185.616 484.81 185.543Z" fill="#D3B81A"/>
<path d="M485.401 186.866C485.702 187.398 486.415 187.333 486.903 187.296C487.918 187.218 488.928 186.964 489.917 186.715C492.043 186.178 494.158 185.52 496.228 184.76C496.697 184.588 496.497 183.764 496.024 183.939C494.284 184.577 492.514 185.125 490.737 185.62C489.729 185.901 488.714 186.156 487.687 186.338C487.455 186.38 486.176 186.628 486.066 186.436C485.803 185.972 485.137 186.399 485.401 186.866Z" fill="#D3B81A"/>
<path d="M486.094 187.715C485.857 188.127 485.628 188.169 485.58 188.697C485.559 188.928 485.771 189.125 485.965 189.123C488.531 189.104 491.064 188.61 493.457 187.574C493.914 187.376 493.715 186.552 493.252 186.752C490.92 187.762 488.468 188.252 485.965 188.271C486.093 188.413 486.221 188.555 486.35 188.697C486.361 188.578 486.694 188.259 486.759 188.145C487.026 187.68 486.36 187.253 486.094 187.715Z" fill="#D3B81A"/>
<path d="M488.541 190.087C489.821 191.034 491.677 190.668 493.123 190.657C493.619 190.653 493.62 189.8 493.123 189.804C491.831 189.814 490.067 190.193 488.929 189.351C488.516 189.045 488.131 189.784 488.541 190.087Z" fill="#D3B81A"/>
<path d="M313.329 183.505L295.775 184.528C298.083 192.699 295.194 202.211 298.165 210.536C303.031 209.881 309.45 210.295 314.183 208.479C314.544 200.945 315.542 190.487 313.329 183.505Z" fill="#D3B81A"/>
<path d="M314.715 181.459L297.161 182.482C299.469 190.653 296.58 200.165 299.551 208.49C304.417 207.834 310.836 208.249 315.569 206.433C315.93 198.899 316.928 188.441 314.715 181.459Z" fill="#FDE427"/>
<path d="M300.737 190.592C301.762 191.074 303.231 190.574 304.266 190.362C305.846 190.038 307.417 189.58 309.014 189.371C309.501 189.307 309.507 188.454 309.014 188.519C307.603 188.704 306.212 189.072 304.82 189.378C304.1 189.536 303.38 189.685 302.654 189.8C302.236 189.867 301.537 190.049 301.126 189.855C300.675 189.643 300.282 190.377 300.737 190.592Z" fill="#D3B81A"/>
<path d="M299.777 193.718C304.128 193.166 308.37 191.928 312.581 190.635C313.059 190.488 312.856 189.665 312.377 189.813C308.235 191.085 304.056 192.323 299.777 192.866C299.29 192.928 299.284 193.78 299.777 193.718Z" fill="#D3B81A"/>
<path d="M301.163 196.02C303.549 195.665 305.85 194.801 308.193 194.214C308.677 194.093 308.472 193.272 307.988 193.392C305.716 193.961 303.477 194.823 301.163 195.167C300.678 195.239 300.671 196.092 301.163 196.02Z" fill="#D3B81A"/>
<path d="M301.754 197.342C302.055 197.875 302.768 197.809 303.255 197.772C304.27 197.695 305.28 197.441 306.269 197.192C308.396 196.655 310.51 195.997 312.581 195.237C313.05 195.065 312.849 194.242 312.376 194.415C310.637 195.054 308.867 195.602 307.09 196.097C306.082 196.377 305.066 196.633 304.04 196.815C303.808 196.856 302.528 197.105 302.419 196.912C302.156 196.448 301.49 196.876 301.754 197.342Z" fill="#D3B81A"/>
<path d="M302.447 198.191C302.21 198.603 301.981 198.645 301.932 199.173C301.911 199.404 302.123 199.6 302.317 199.599C304.884 199.58 307.416 199.086 309.809 198.05C310.266 197.852 310.068 197.027 309.605 197.228C307.272 198.238 304.82 198.728 302.317 198.747C302.446 198.889 302.574 199.031 302.702 199.173C302.713 199.054 303.046 198.735 303.111 198.621C303.379 198.156 302.712 197.728 302.447 198.191Z" fill="#D3B81A"/>
<path d="M304.894 200.564C306.174 201.511 308.03 201.144 309.477 201.133C309.973 201.13 309.973 200.277 309.477 200.281C308.184 200.291 306.42 200.669 305.283 199.827C304.869 199.522 304.484 200.26 304.894 200.564Z" fill="#D3B81A"/>
<path d="M199.817 217.061C197.484 210.054 195.402 202.825 193.781 195.297C189.925 200.723 175.63 201.472 175.63 201.472C178.726 208.95 181.675 218.553 181.678 226.592C187.792 224.2 194.101 220.655 199.817 217.061Z" fill="#AA3C6E"/>
<path d="M200.239 214.821C197.906 207.815 195.824 200.585 194.203 193.057C190.347 198.483 176.053 199.233 176.053 199.233C179.148 206.71 182.097 216.314 182.1 224.353C188.215 221.961 194.523 218.416 200.239 214.821Z" fill="#FF5593"/>
<path d="M183.442 204.67C184.866 205.248 186.536 204.563 187.86 203.968C189.478 203.242 191.006 202.283 192.494 201.277C192.917 200.991 192.532 200.252 192.107 200.539C190.824 201.407 189.514 202.223 188.144 202.913C186.857 203.561 185.071 204.426 183.648 203.849C183.181 203.659 182.98 204.482 183.442 204.67Z" fill="#AA3C6E"/>
<path d="M184.564 208.089C186.232 207.283 188.027 206.842 189.71 206.073C190.161 205.866 189.971 205.039 189.513 205.248C187.766 206.047 185.909 206.514 184.176 207.352C183.723 207.572 184.113 208.307 184.564 208.089Z" fill="#AA3C6E"/>
<path d="M184.279 209.185C186.266 210.111 188.568 208.777 190.404 207.986C190.861 207.789 190.67 206.962 190.208 207.161C188.509 207.894 186.32 209.218 184.485 208.364C184.028 208.151 183.829 208.976 184.279 209.185Z" fill="#AA3C6E"/>
<path d="M183.45 213.439C186.518 211.456 190.002 210.475 193.273 208.999C193.726 208.794 193.535 207.967 193.076 208.174C189.742 209.678 186.19 210.681 183.063 212.702C182.635 212.979 183.021 213.717 183.45 213.439Z" fill="#AA3C6E"/>
<path d="M185.566 215.746C187.702 214.834 189.839 213.928 191.901 212.821C192.348 212.582 191.959 211.846 191.514 212.084C189.514 213.157 187.441 214.037 185.37 214.921C184.912 215.117 185.103 215.943 185.566 215.746Z" fill="#AA3C6E"/>
<path d="M186.356 217.237C187.118 217.599 188.181 216.9 188.86 216.562C190.045 215.972 191.196 215.283 192.314 214.552C192.741 214.273 192.355 213.536 191.927 213.816C191.023 214.406 190.097 214.955 189.156 215.468C188.657 215.74 188.151 215.997 187.631 216.218C187.452 216.294 186.882 216.567 186.744 216.501C186.293 216.286 185.9 217.02 186.356 217.237Z" fill="#AA3C6E"/>
<path opacity="0.6" d="M196.492 149.755C194.159 142.747 192.077 135.519 190.457 127.99C186.601 133.416 172.307 134.166 172.307 134.166C175.401 141.644 178.351 151.247 178.354 159.286C184.468 156.893 190.776 153.349 196.492 149.755Z" fill="#38B6FF"/>
<path d="M196.914 147.515C194.581 140.509 192.499 133.279 190.879 125.751C177.68 130.16 172.306 134.166 172.306 134.166C175.401 141.644 178.772 149.008 178.775 157.046C184.89 154.654 191.198 151.109 196.914 147.515Z" fill="#FF5593"/>
<path d="M180.117 137.364C181.541 137.942 183.211 137.257 184.535 136.662C186.153 135.936 187.682 134.977 189.169 133.971C189.592 133.685 189.207 132.946 188.782 133.233C187.499 134.101 186.189 134.917 184.819 135.607C183.532 136.255 181.745 137.12 180.323 136.542C179.856 136.352 179.655 137.176 180.117 137.364Z" fill="#AA3C6E"/>
<path d="M181.239 140.783C182.908 139.976 184.702 139.536 186.385 138.766C186.837 138.56 186.646 137.733 186.188 137.942C184.441 138.74 182.584 139.208 180.852 140.046C180.398 140.265 180.789 141.001 181.239 140.783Z" fill="#AA3C6E"/>
<path d="M180.955 141.879C182.941 142.804 185.243 141.471 187.079 140.679C187.537 140.482 187.345 139.656 186.883 139.855C185.183 140.588 182.995 141.912 181.161 141.058C180.703 140.845 180.504 141.67 180.955 141.879Z" fill="#AA3C6E"/>
<path d="M180.125 146.133C183.194 144.15 186.677 143.168 189.948 141.693C190.402 141.488 190.211 140.661 189.752 140.868C186.418 142.373 182.866 143.375 179.738 145.396C179.31 145.673 179.696 146.41 180.125 146.133Z" fill="#AA3C6E"/>
<path d="M182.241 148.439C184.377 147.527 186.515 146.621 188.577 145.515C189.023 145.275 188.634 144.54 188.19 144.778C186.189 145.851 184.117 146.73 182.045 147.615C181.587 147.811 181.779 148.637 182.241 148.439Z" fill="#AA3C6E"/>
<path d="M183.032 149.93C183.794 150.293 184.857 149.593 185.536 149.255C186.72 148.665 187.871 147.976 188.989 147.245C189.416 146.966 189.03 146.228 188.602 146.508C187.698 147.098 186.772 147.647 185.832 148.16C185.333 148.432 184.826 148.689 184.306 148.91C184.127 148.986 183.557 149.259 183.419 149.193C182.969 148.98 182.576 149.714 183.032 149.93Z" fill="#AA3C6E"/>
<path d="M254.829 111.469C254.187 104.035 253.84 96.4567 254.007 88.7202C249.029 92.8772 235.035 89.5638 235.035 89.5638C236.304 97.6683 236.943 107.787 235.094 115.561C241.557 114.975 248.474 113.329 254.829 111.469Z" fill="#AA3C6E"/>
<path d="M255.753 109.422C255.111 101.988 254.764 94.4102 254.931 86.6736C249.953 90.8307 235.959 87.5173 235.959 87.5173C237.228 95.6212 237.867 105.74 236.018 113.514C242.482 112.928 249.397 111.283 255.753 109.422Z" fill="#FF5593"/>
<path d="M241.851 94.862C243.094 95.8233 244.867 95.6329 246.285 95.4314C248.017 95.1858 249.715 94.6903 251.385 94.1378C251.86 93.9806 251.658 93.1585 251.181 93.3157C249.74 93.7925 248.285 94.2111 246.803 94.4912C245.409 94.7543 243.482 95.0862 242.24 94.1261C241.831 93.8105 241.447 94.55 241.851 94.862Z" fill="#AA3C6E"/>
<path d="M242.147 98.4846C243.946 98.176 245.784 98.2569 247.588 97.9885C248.072 97.9163 248.078 97.0634 247.588 97.1362C245.715 97.4151 243.811 97.3417 241.943 97.6625C241.453 97.7469 241.662 98.5684 242.147 98.4846Z" fill="#AA3C6E"/>
<path d="M241.62 99.4645C243.327 100.92 245.86 100.281 247.818 100.034C248.306 99.9727 248.311 99.1198 247.818 99.1821C246.007 99.4109 243.585 100.073 242.008 98.7291C241.615 98.3938 241.232 99.1343 241.62 99.4645Z" fill="#AA3C6E"/>
<path d="M239.838 103.343C243.262 102.292 246.856 102.327 250.359 101.824C250.845 101.754 250.85 100.901 250.359 100.972C246.789 101.485 243.124 101.45 239.634 102.522C239.156 102.668 239.359 103.491 239.838 103.343Z" fill="#AA3C6E"/>
<path d="M241.352 106.171C243.628 105.892 245.903 105.62 248.152 105.133C248.639 105.028 248.432 104.206 247.947 104.311C245.766 104.784 243.56 105.048 241.352 105.318C240.865 105.379 240.859 106.232 241.352 106.171Z" fill="#AA3C6E"/>
<path d="M241.773 107.836C242.427 108.402 243.615 108.026 244.35 107.89C245.63 107.655 246.902 107.314 248.152 106.923C248.629 106.773 248.426 105.951 247.947 106.101C246.938 106.417 245.916 106.685 244.888 106.915C244.343 107.037 243.794 107.143 243.241 107.209C243.05 107.232 242.436 107.335 242.318 107.232C241.931 106.899 241.382 107.498 241.773 107.836Z" fill="#AA3C6E"/>
<path d="M456.013 154.459C457.052 147.08 458.408 139.642 460.299 132.192C454.546 134.857 441.726 127.814 441.726 127.814C441.146 136.014 439.505 145.994 435.977 153.019C442.371 154.222 449.439 154.521 456.013 154.459Z" fill="#38B6FF"/>
<path d="M457.365 152.73C458.404 145.351 459.76 137.913 461.651 130.463C454.062 128.491 443.079 126.085 443.079 126.085C442.499 134.285 440.858 144.265 437.329 151.29C443.723 152.492 450.791 152.792 457.365 152.73Z" fill="#46F2F2"/>
<path d="M447.148 134.814C448.138 136.086 449.898 136.387 451.316 136.581C453.049 136.817 454.805 136.802 456.547 136.724C457.042 136.702 457.03 135.849 456.532 135.871C455.03 135.938 453.527 135.946 452.027 135.811C450.618 135.685 448.677 135.479 447.688 134.208C447.363 133.79 446.826 134.401 447.148 134.814Z" fill="#38B6FF"/>
<path d="M446.626 138.406C448.438 138.599 450.2 139.181 452.008 139.415C452.493 139.478 452.69 138.653 452.198 138.589C450.321 138.346 448.493 137.754 446.611 137.553C446.118 137.501 446.137 138.354 446.626 138.406Z" fill="#38B6FF"/>
<path d="M445.896 139.211C447.225 141.089 449.822 141.163 451.774 141.46C452.26 141.534 452.457 140.709 451.965 140.635C450.158 140.36 447.664 140.338 446.436 138.604C446.13 138.172 445.594 138.784 445.896 139.211Z" fill="#38B6FF"/>
<path d="M443.303 142.481C446.855 142.4 450.329 143.418 453.836 143.89C454.322 143.956 454.518 143.131 454.027 143.065C450.453 142.584 446.909 141.547 443.288 141.629C442.792 141.639 442.805 142.492 443.303 142.481Z" fill="#38B6FF"/>
<path d="M444.138 145.635C446.405 145.989 448.67 146.348 450.958 146.492C451.454 146.523 451.437 145.67 450.944 145.639C448.725 145.5 446.528 145.152 444.328 144.81C443.843 144.734 443.647 145.559 444.138 145.635Z" fill="#38B6FF"/>
<path d="M444.174 147.364C444.681 148.091 445.917 148.053 446.658 148.123C447.952 148.245 449.26 148.263 450.558 148.227C451.054 148.213 451.041 147.36 450.543 147.374C449.495 147.404 448.445 147.384 447.397 147.326C446.842 147.295 446.286 147.247 445.735 147.16C445.545 147.13 444.928 147.062 444.836 146.93C444.536 146.5 443.87 146.93 444.174 147.364Z" fill="#38B6FF"/>
<g opacity="0.6">
<path d="M305.139 162.032C305.141 162.017 305.144 162.002 305.146 161.986C305.133 161.988 305.121 161.99 305.109 161.993C304.949 162.179 304.959 162.192 305.139 162.032Z" fill="#38B6FF"/>
<path d="M356.323 116.446C357.253 103.776 357.382 91.049 357.733 78.3875C355.727 78.0929 353.692 77.9001 351.644 77.7755C351.578 77.7616 351.51 77.7517 351.441 77.7453C351.342 77.7365 351.245 77.7383 351.149 77.7453C346.009 77.46 340.795 77.598 335.764 77.6888C329.73 77.7977 323.225 77.4705 317.182 78.0766L309.371 77.8967C309.261 77.8641 309.146 77.8402 309.028 77.8297C308.824 77.8111 308.624 77.828 308.434 77.8751L302.63 77.7412C306.53 89.845 306.115 106.986 306.71 119.804C307.348 133.553 307.4 148.359 305.146 161.985C312.472 160.446 321.595 164.67 329.38 164.389C336.591 164.13 344.449 162.702 351.188 161.288C351.396 154.74 353.645 148.137 354.469 141.603C355.512 133.317 355.709 124.786 356.323 116.446Z" fill="#38B6FF"/>
</g>
<path d="M310.939 158.09C310.941 158.074 310.942 158.059 310.943 158.043C310.931 158.047 310.918 158.05 310.906 158.054C310.761 158.253 310.771 158.265 310.939 158.09Z" fill="white"/>
<path d="M358.608 108.049C358.606 95.3389 357.8 82.6418 357.22 69.9901C349.971 69.5831 342.44 70.4931 335.273 71.2704C329.267 71.9219 322.76 72.1804 316.781 73.3285L302.252 74.3032C307.028 86.0158 307.872 103.137 309.406 115.86C311.051 129.506 312.189 144.258 310.943 158.042C318.131 155.849 327.534 159.238 335.273 158.258C342.442 157.351 350.169 155.221 356.782 153.205C356.508 146.659 358.266 139.876 358.606 133.289C359.038 124.938 358.609 116.416 358.608 108.049Z" fill="white"/>
<path d="M318.43 92.4813C320.419 93.1014 322.647 92.3509 324.545 91.6825C327.04 90.8039 329.425 89.6488 331.938 88.8133C338.058 86.7784 344.355 85.3072 350.777 85.6303C351.487 85.6658 351.484 84.4472 350.777 84.4117C344.674 84.1049 338.68 85.4038 332.837 87.2512C330.323 88.0459 327.928 89.0468 325.479 90.0406C323.475 90.854 320.873 91.9765 318.723 91.3064C318.039 91.0927 317.748 92.2688 318.43 92.4813Z" fill="#D7E0E0"/>
<path d="M318.508 98.8631C328.363 92.5675 339.837 88.7341 351.123 87.349C351.82 87.2634 351.828 86.0437 351.123 86.1305C339.636 87.54 327.987 91.4007 317.952 97.811C317.338 98.2028 317.893 99.2561 318.508 98.8631Z" fill="#D7E0E0"/>
<path d="M315.739 102.299C325.113 97.6293 335.639 97.4902 345.384 94.1994C346.06 93.9712 345.772 92.7945 345.091 93.0245C335.243 96.3496 324.659 96.526 315.183 101.247C314.537 101.569 315.097 102.618 315.739 102.299Z" fill="#D7E0E0"/>
<path d="M320.454 103.649C329.129 102.358 337.804 101.057 346.422 99.3539C347.12 99.2159 346.823 98.0415 346.129 98.1789C337.511 99.8825 328.836 101.183 320.162 102.475C319.461 102.578 319.761 103.753 320.454 103.649Z" fill="#D7E0E0"/>
<path d="M319.816 109.663C321.222 110.064 322.731 109.812 324.138 109.553C326.352 109.145 328.525 108.456 330.676 107.761C334.98 106.371 339.24 104.585 343.652 103.649C344.349 103.502 344.053 102.327 343.359 102.475C339.239 103.348 335.246 104.977 331.235 106.307C329.107 107.013 326.966 107.684 324.79 108.182C323.313 108.52 321.603 108.916 320.108 108.488C319.421 108.29 319.129 109.466 319.816 109.663Z" fill="#D7E0E0"/>
<path d="M322.039 114.409C327.773 114.861 333.699 113.172 339.151 111.38C339.83 111.157 339.541 109.981 338.859 110.205C333.49 111.969 327.684 113.636 322.039 113.19C321.331 113.134 321.336 114.354 322.039 114.409Z" fill="#D7E0E0"/>
<path d="M325.113 118.956C327.031 121.164 331.039 119.909 333.314 119.277C336.418 118.414 339.525 117.184 342.398 115.615C343.035 115.267 342.477 114.216 341.843 114.563C339.281 115.961 336.536 117.023 333.79 117.876C332.245 118.355 330.662 118.746 329.059 118.87C328.033 118.949 326.663 118.983 325.89 118.094C325.398 117.527 324.621 118.389 325.113 118.956Z" fill="#D7E0E0"/>
<path d="M331.241 125.555C333.947 126.458 336.841 126.091 339.592 125.666C342.85 125.164 346.089 124.319 349.392 124.288C350.101 124.281 350.102 123.063 349.392 123.069C346.459 123.097 343.558 123.752 340.672 124.262C337.706 124.786 334.472 125.361 331.534 124.38C330.853 124.152 330.564 125.329 331.241 125.555Z" fill="#D7E0E0"/>
<path d="M319.416 134.146C329.003 131.01 339.339 132.548 348.846 128.991C349.515 128.741 349.227 127.564 348.553 127.816C339.048 131.372 328.712 129.835 319.123 132.971C318.444 133.193 318.733 134.369 319.416 134.146Z" fill="#D7E0E0"/>
<path d="M323.771 141.899C331.414 141.29 338.25 136.412 345.93 135.886C346.635 135.838 346.639 134.618 345.93 134.667C342.117 134.929 338.444 136.209 334.833 137.509C331.241 138.802 327.569 140.378 323.771 140.681C323.067 140.736 323.062 141.956 323.771 141.899Z" fill="#D7E0E0"/>
<path d="M326.844 143.007C326.379 143.437 325.866 143.434 325.663 144.134C325.564 144.477 325.842 144.958 326.194 144.906C331.774 144.083 337.474 144.804 342.96 143.165C343.644 142.961 343.353 141.786 342.667 141.991C337.279 143.6 331.675 142.878 326.194 143.687C326.371 143.944 326.548 144.201 326.724 144.458C326.75 144.368 327.49 143.99 327.622 143.868C328.167 143.363 327.384 142.505 326.844 143.007Z" fill="#D7E0E0"/>
<path d="M335.05 146.602C337.304 147.583 339.993 146.592 342.268 146.173C342.966 146.044 342.669 144.87 341.975 144.997C339.884 145.382 337.409 146.325 335.343 145.427C334.681 145.139 334.397 146.318 335.05 146.602Z" fill="#D7E0E0"/>
<path d="M310.618 76.0103C310.618 77.2219 309.731 78.2041 308.636 78.2041C307.542 78.2041 306.655 77.2219 306.655 76.0103C306.655 74.7987 307.542 73.8165 308.636 73.8165C309.731 73.8165 310.618 74.7987 310.618 76.0103Z" fill="#FF1717"/>
<path d="M352.885 72.1099C352.885 73.3216 351.998 74.3038 350.903 74.3038C349.809 74.3038 348.922 73.3216 348.922 72.1099C348.922 70.8983 349.809 69.9161 350.903 69.9161C351.997 69.9161 352.885 70.8983 352.885 72.1099Z" fill="#579334"/>
<path d="M401.897 154.611C401.255 147.177 400.908 139.599 401.075 131.862C396.097 136.019 382.103 132.706 382.103 132.706C383.372 140.81 384.011 150.929 382.162 158.703C388.625 158.117 395.541 156.472 401.897 154.611Z" fill="#AA3C6E"/>
<path d="M402.821 152.565C402.179 145.131 401.832 137.553 402 129.816C397.021 133.973 383.027 130.66 383.027 130.66C384.296 138.764 384.935 148.883 383.086 156.657C389.549 156.071 396.465 154.426 402.821 152.565Z" fill="#FF5593"/>
<path d="M388.918 138.005C390.162 138.966 391.935 138.776 393.352 138.574C395.084 138.328 396.783 137.833 398.453 137.28C398.927 137.123 398.725 136.301 398.248 136.458C396.808 136.935 395.353 137.354 393.87 137.633C392.476 137.896 390.55 138.229 389.308 137.268C388.899 136.953 388.515 137.692 388.918 138.005Z" fill="#AA3C6E"/>
<path d="M389.215 141.627C391.014 141.318 392.851 141.4 394.655 141.131C395.14 141.059 395.146 140.206 394.655 140.279C392.782 140.558 390.879 140.485 389.01 140.806C388.521 140.89 388.73 141.711 389.215 141.627Z" fill="#AA3C6E"/>
<path d="M388.688 142.607C390.396 144.063 392.928 143.423 394.886 143.177C395.374 143.115 395.379 142.263 394.886 142.325C393.075 142.554 390.653 143.216 389.076 141.872C388.682 141.536 388.3 142.277 388.688 142.607Z" fill="#AA3C6E"/>
<path d="M386.906 146.486C390.329 145.435 393.923 145.47 397.427 144.967C397.912 144.897 397.918 144.044 397.427 144.115C393.857 144.627 390.191 144.593 386.701 145.664C386.224 145.811 386.426 146.633 386.906 146.486Z" fill="#AA3C6E"/>
<path d="M388.42 149.314C390.695 149.035 392.971 148.763 395.22 148.276C395.706 148.17 395.499 147.349 395.015 147.454C392.834 147.926 390.627 148.191 388.42 148.461C387.932 148.521 387.927 149.374 388.42 149.314Z" fill="#AA3C6E"/>
<path d="M388.841 150.979C389.494 151.544 390.683 151.169 391.417 151.034C392.698 150.798 393.971 150.457 395.219 150.066C395.696 149.916 395.493 149.094 395.015 149.244C394.006 149.56 392.984 149.829 391.956 150.058C391.41 150.181 390.861 150.286 390.308 150.353C390.118 150.376 389.504 150.479 389.385 150.376C388.999 150.042 388.45 150.641 388.841 150.979Z" fill="#AA3C6E"/>
<path d="M151.873 201.65C151.232 194.217 150.885 186.638 151.052 178.902C146.073 183.059 132.079 179.745 132.079 179.745C133.348 187.85 133.987 197.969 132.138 205.742C138.602 205.156 145.518 203.511 151.873 201.65Z" fill="#AA3C6E"/>
<path d="M152.797 199.604C152.156 192.171 151.808 184.592 151.976 176.856C146.997 181.013 133.003 177.699 133.003 177.699C134.272 185.803 134.912 195.922 133.062 203.696C139.526 203.111 146.442 201.465 152.797 199.604Z" fill="#FF5593"/>
<path d="M138.895 185.044C140.139 186.005 141.911 185.815 143.329 185.614C145.061 185.368 146.76 184.872 148.43 184.32C148.904 184.163 148.702 183.34 148.225 183.498C146.785 183.974 145.33 184.393 143.847 184.673C142.453 184.936 140.526 185.268 139.284 184.308C138.876 183.992 138.491 184.732 138.895 185.044Z" fill="#AA3C6E"/>
<path d="M139.192 188.667C140.991 188.358 142.828 188.439 144.632 188.171C145.116 188.099 145.123 187.246 144.632 187.318C142.759 187.597 140.856 187.524 138.987 187.845C138.498 187.929 138.706 188.75 139.192 188.667Z" fill="#AA3C6E"/>
<path d="M138.664 189.647C140.372 191.102 142.905 190.464 144.863 190.216C145.35 190.155 145.356 189.301 144.863 189.364C143.051 189.592 140.63 190.255 139.053 188.911C138.66 188.575 138.276 189.317 138.664 189.647Z" fill="#AA3C6E"/>
<path d="M136.882 193.525C140.306 192.475 143.9 192.509 147.403 192.006C147.889 191.937 147.894 191.084 147.403 191.154C143.833 191.667 140.168 191.633 136.678 192.703C136.2 192.85 136.403 193.672 136.882 193.525Z" fill="#AA3C6E"/>
<path d="M138.397 196.353C140.672 196.074 142.948 195.803 145.196 195.315C145.683 195.21 145.477 194.388 144.992 194.493C142.811 194.966 140.604 195.23 138.397 195.5C137.909 195.56 137.904 196.414 138.397 196.353Z" fill="#AA3C6E"/>
<path d="M138.817 198.018C139.471 198.584 140.66 198.208 141.394 198.073C142.675 197.837 143.947 197.497 145.196 197.106C145.673 196.956 145.47 196.134 144.992 196.283C143.982 196.6 142.96 196.868 141.932 197.098C141.387 197.22 140.838 197.326 140.285 197.392C140.095 197.415 139.48 197.518 139.362 197.415C138.976 197.082 138.426 197.68 138.817 198.018Z" fill="#AA3C6E"/>
<path d="M324.99 282.638C325.206 286.095 322.851 288.898 319.729 288.898H302.016C298.894 288.898 296.679 286.095 297.069 282.638L301.546 242.995C301.935 239.538 303.984 236.736 306.122 236.736H318.247C320.384 236.736 322.292 239.538 322.508 242.995L324.99 282.638Z" fill="#3D3D3D"/>
<path d="M320.17 281.543C320.343 284.245 318.461 286.435 315.968 286.435H301.82C299.327 286.435 297.558 284.245 297.87 281.543L301.445 250.558C301.756 247.856 303.393 245.665 305.1 245.665H314.783C316.49 245.665 318.015 247.856 318.187 250.558L320.17 281.543Z" fill="#707070"/>
<path d="M309.376 283.758C304.231 283.758 300.045 279.123 300.045 273.426C300.045 267.729 304.231 263.095 309.376 263.095C314.521 263.095 318.707 267.729 318.707 273.426C318.707 279.123 314.521 283.758 309.376 283.758ZM309.376 263.864C304.614 263.864 300.74 268.154 300.74 273.427C300.74 278.699 304.614 282.989 309.376 282.989C314.139 282.989 318.012 278.699 318.012 273.427C318.013 268.154 314.139 263.864 309.376 263.864Z" fill="#3D3D3D"/>
<path d="M309.376 265.499C305.429 265.499 302.217 269.055 302.217 273.426C302.217 277.797 305.429 281.353 309.376 281.353C313.324 281.353 316.535 277.797 316.535 273.426C316.535 269.055 313.324 265.499 309.376 265.499Z" fill="#3D3D3D"/>
<path d="M309.376 260.66C306.467 260.66 304.099 258.04 304.099 254.818C304.099 251.596 306.467 248.976 309.376 248.976C312.285 248.976 314.652 251.596 314.652 254.818C314.653 258.04 312.286 260.66 309.376 260.66ZM309.376 249.411C306.683 249.411 304.493 251.837 304.493 254.818C304.493 257.8 306.683 260.226 309.376 260.226C312.069 260.226 314.26 257.8 314.26 254.818C314.26 251.837 312.069 249.411 309.376 249.411Z" fill="#3D3D3D"/>
<path d="M309.376 250.336C307.144 250.336 305.328 252.346 305.328 254.818C305.328 257.29 307.144 259.3 309.376 259.3C311.608 259.3 313.424 257.29 313.424 254.818C313.425 252.346 311.609 250.336 309.376 250.336Z" fill="#3D3D3D"/>
<path d="M569.361 299.71H554.326V489.758H569.361V299.71Z" fill="#A0A0A0"/>
<path opacity="0.7" d="M569.361 483.121H554.326V489.758H569.361V483.121Z" fill="#212E35"/>
<path d="M560.196 463.185C560.196 464.372 559.508 465.334 558.661 465.334C557.813 465.334 557.126 464.372 557.126 463.185V310.012C557.126 308.825 557.813 307.862 558.661 307.862C559.508 307.862 560.196 308.825 560.196 310.012V463.185Z" fill="#CCCCCC"/>
<path d="M462.16 299.71H447.125V489.758H462.16V299.71Z" fill="#A0A0A0"/>
<path opacity="0.7" d="M462.16 483.121H447.125V489.758H462.16V483.121Z" fill="#212E35"/>
<path d="M452.994 463.185C452.994 464.372 452.308 465.334 451.46 465.334C450.612 465.334 449.925 464.372 449.925 463.185V310.012C449.925 308.825 450.612 307.862 451.46 307.862C452.308 307.862 452.994 308.825 452.994 310.012V463.185Z" fill="#CCCCCC"/>
<path d="M290.192 299.71H275.156V489.758H290.192V299.71Z" fill="#A0A0A0"/>
<path opacity="0.7" d="M290.192 483.121H275.156V489.758H290.192V483.121Z" fill="#212E35"/>
<path d="M281.026 463.185C281.026 464.372 280.339 465.334 279.491 465.334C278.643 465.334 277.956 464.372 277.956 463.185V310.012C277.956 308.825 278.643 307.862 279.491 307.862C280.339 307.862 281.026 308.825 281.026 310.012V463.185Z" fill="#CCCCCC"/>
<path d="M183.431 299.71H168.395V489.758H183.431V299.71Z" fill="#A0A0A0"/>
<path opacity="0.7" d="M183.431 483.121H168.395V489.758H183.431V483.121Z" fill="#212E35"/>
<path d="M174.265 463.185C174.265 464.372 173.578 465.334 172.73 465.334C171.883 465.334 171.196 464.372 171.196 463.185V310.012C171.196 308.825 171.883 307.862 172.73 307.862C173.579 307.862 174.265 308.825 174.265 310.012V463.185Z" fill="#CCCCCC"/>
<path d="M570.176 295.892H167.762V310.517H570.176V295.892Z" fill="#302530"/>
<path d="M581.622 289.555H155.434V299.305H581.622V289.555Z" fill="#60485E"/>
<path d="M581.622 289.555H464.577V299.305H581.622V289.555Z" fill="#423241"/>
<path d="M201.501 264.888C201.246 264.853 200.989 264.818 200.735 264.782C201.142 264.811 201.401 264.847 201.501 264.888Z" fill="#603043"/>
<path d="M201.93 349.974C192.94 351.419 204.839 356.024 197.047 359.162L236.77 365.93C257.057 364.569 315.145 368.548 324.466 365.93C327.802 364.992 345.101 365.452 346.499 363.278C335.695 343.832 215.415 347.805 201.93 349.974Z" fill="#00788C"/>
<path d="M406.148 244.535H387.269V288.16H406.148V244.535Z" fill="#3D3D3D"/>
<path d="M396 244.535H387.269V288.16H396V244.535Z" fill="#757573"/>
<path d="M439.793 286.597C439.793 288.105 438.691 289.323 437.331 289.323H356.086C354.727 289.323 353.625 288.105 353.625 286.597C353.625 285.845 353.901 285.164 354.346 284.673C354.79 284.179 355.408 283.874 356.086 283.874H437.331C438.691 283.874 439.793 285.094 439.793 286.597Z" fill="#999995"/>
<path d="M439.793 286.597C439.793 288.105 439.02 289.323 438.067 289.323H408.724C407.771 289.323 406.998 288.105 406.998 286.597C406.998 285.845 407.192 285.164 407.505 284.673C407.817 284.179 408.247 283.874 408.724 283.874H438.067C439.02 283.874 439.793 285.094 439.793 286.597Z" fill="#3D3D3D"/>
<path d="M466.572 168.348V250.978C466.572 255.739 463.682 259.701 459.869 260.537C459.383 260.646 458.879 260.701 458.365 260.701H327.057C326.543 260.701 326.04 260.646 325.552 260.537C321.739 259.701 318.85 255.739 318.85 250.978V168.348C318.85 162.98 322.527 158.628 327.057 158.628H458.366C462.898 158.628 466.572 162.98 466.572 168.348Z" fill="#3D3D3D"/>
<path d="M456.789 171.792V247.537C456.789 252.459 453.467 256.449 449.366 256.449H330.606C326.506 256.449 323.182 252.459 323.182 247.537V171.792C323.182 166.87 326.506 162.881 330.606 162.881H449.366C453.467 162.881 456.789 166.87 456.789 171.792Z" fill="#544753"/>
<path d="M457.185 238.953V251.231C457.185 256.093 454.471 260.139 450.89 260.992H324.735C321.153 260.139 318.44 256.093 318.44 251.231V238.953H457.185Z" fill="#CCCCCC"/>
<path d="M389.737 246.845C389.737 248.727 387.899 250.252 385.633 250.252C383.367 250.252 381.53 248.727 381.53 246.845C381.53 244.963 383.367 243.438 385.633 243.438C387.899 243.438 389.737 244.963 389.737 246.845Z" fill="#757573"/>
<path d="M335.254 167.657H328.459V168.463H335.254V167.657Z" fill="#CACEA5"/>
<path d="M374.083 167.657H364.861V168.463H374.083V167.657Z" fill="#CACEA5"/>
<path d="M406.117 167.657H376.025V168.463H406.117V167.657Z" fill="#CACEA5"/>
<path d="M426.744 168.463V167.657H408.058V168.463H414.853V167.925H417.037V168.463H426.744Z" fill="#CACEA5"/>
<path d="M439.85 167.657H432.327V168.463H439.85V167.657Z" fill="#CACEA5"/>
<path d="M335.254 171.418H328.459V172.225H335.254V171.418Z" fill="#CACEA5"/>
<path d="M406.116 171.418H398.351V172.225H406.116V171.418Z" fill="#CACEA5"/>
<path d="M414.854 171.418H408.058V172.225H414.854V171.418Z" fill="#CACEA5"/>
<path d="M439.85 171.418H432.327V172.225H439.85V171.418Z" fill="#CACEA5"/>
<path d="M426.744 171.418H417.037V172.225H426.744V171.418Z" fill="#CACEA5"/>
<path d="M374.083 171.418H364.861V172.225H374.083V171.418Z" fill="#CACEA5"/>
<path d="M394.711 171.418H376.025V172.225H394.711V171.418Z" fill="#CACEA5"/>
<path d="M335.254 175.18H328.459V175.987H335.254V175.18Z" fill="#CACEA5"/>
<path d="M394.711 175.18H369.472V175.987H394.711V175.18Z" fill="#CACEA5"/>
<path d="M399.807 175.18H398.351V175.987H399.807V175.18Z" fill="#CACEA5"/>
<path d="M414.853 175.18H405.389V175.987H414.853V175.18Z" fill="#CACEA5"/>
<path d="M426.744 175.18H417.037V175.987H426.744V175.18Z" fill="#CACEA5"/>
<path d="M439.85 175.18H432.327V175.987H439.85V175.18Z" fill="#CACEA5"/>
<path d="M335.254 178.943H328.459V179.748H335.254V178.943Z" fill="#CACEA5"/>
<path d="M394.711 178.943H369.472V179.748H394.711V178.943Z" fill="#CACEA5"/>
<path d="M399.807 178.943H398.351V179.748H399.807V178.943Z" fill="#CACEA5"/>
<path d="M426.744 178.943H405.389V179.748H426.744V178.943Z" fill="#CACEA5"/>
<path d="M439.85 178.943H435.966V179.748H439.85V178.943Z" fill="#CACEA5"/>
<path d="M434.996 178.943H432.327V179.748H434.996V178.943Z" fill="#CACEA5"/>
<path d="M348.116 182.704H328.459V183.51H348.116V182.704Z" fill="#CACEA5"/>
<path d="M375.539 182.704H369.472V183.51H375.539V182.704Z" fill="#CACEA5"/>
<path d="M434.996 182.704H405.389V183.51H434.996V182.704Z" fill="#CACEA5"/>
<path d="M439.85 182.704H435.966V183.51H439.85V182.704Z" fill="#CACEA5"/>
<path d="M391.313 182.704H383.79V183.51H391.313V182.704Z" fill="#CACEA5"/>
<path d="M363.89 187.003H348.116V186.466H328.459V187.272H363.89V187.003Z" fill="#CACEA5"/>
<path d="M391.313 186.466H383.79V187.272H391.313V186.466Z" fill="#CACEA5"/>
<path d="M405.389 186.466V187.003H402.962V187.272H418.736V186.466H405.389Z" fill="#CACEA5"/>
<path d="M434.996 186.466H419.464V187.272H434.996V186.466Z" fill="#CACEA5"/>
<path d="M439.85 186.466H435.966V187.272H439.85V186.466Z" fill="#CACEA5"/>
<path d="M375.539 186.466H369.472V187.272H375.539V186.466Z" fill="#CACEA5"/>
<path d="M328.459 190.228V191.034H329.43V190.765H331.614V191.034H375.539V190.228H328.459Z" fill="#E0E8BF"/>
<path d="M391.313 190.228H383.79V191.034H391.313V190.228Z" fill="#E0E8BF"/>
<path d="M418.736 190.228H402.962V191.034H418.736V190.228Z" fill="#E0E8BF"/>
<path d="M434.996 190.228H419.464V191.034H434.996V190.228Z" fill="#E0E8BF"/>
<path d="M439.85 190.228H435.966V191.034H439.85V190.228Z" fill="#E0E8BF"/>
<path d="M329.43 193.99H328.459V194.795H329.43V193.99Z" fill="#E0E8BF"/>
<path d="M375.539 193.99H331.614V194.795H375.539V193.99Z" fill="#E0E8BF"/>
<path d="M391.313 193.99H383.79V194.795H391.313V193.99Z" fill="#E0E8BF"/>
<path d="M418.736 193.99H402.962V194.795H418.736V193.99Z" fill="#E0E8BF"/>
<path d="M434.996 193.99H419.464V194.795H434.996V193.99Z" fill="#E0E8BF"/>
<path d="M439.85 193.99H435.966V194.795H439.85V193.99Z" fill="#E0E8BF"/>
<path d="M375.539 197.752H331.614V198.558H375.539V197.752Z" fill="#E0E8BF"/>
<path d="M390.1 197.752H383.79V198.558H390.1V197.752Z" fill="#E0E8BF"/>
<path d="M416.067 197.752H402.962V198.558H416.067V197.752Z" fill="#E0E8BF"/>
<path d="M439.849 197.752H428.443V198.558H439.849V197.752Z" fill="#E0E8BF"/>
<path d="M424.075 197.752H421.648V198.558H424.075V197.752Z" fill="#E0E8BF"/>
<path d="M416.067 201.514H402.962V202.32H416.067V201.514Z" fill="#E0E8BF"/>
<path d="M424.075 201.514H421.648V202.32H424.075V201.514Z" fill="#E0E8BF"/>
<path d="M431.355 201.514H428.443V202.32H431.355V201.514Z" fill="#E0E8BF"/>
<path d="M439.849 201.514H432.569V202.32H439.849V201.514Z" fill="#E0E8BF"/>
<path d="M390.1 201.514H383.79V202.32H390.1V201.514Z" fill="#E0E8BF"/>
<path d="M338.895 201.514H331.614V202.32H338.895V201.514Z" fill="#E0E8BF"/>
<path d="M375.539 201.514H339.137V202.32H375.539V201.514Z" fill="#E0E8BF"/>
<path d="M390.1 205.275H383.79V206.082H390.1V205.275Z" fill="#E0E8BF"/>
<path d="M416.067 205.275H402.962V206.082H416.067V205.275Z" fill="#E0E8BF"/>
<path d="M424.075 205.275H421.648V206.082H424.075V205.275Z" fill="#E0E8BF"/>
<path d="M431.355 205.275H428.443V206.082H431.355V205.275Z" fill="#E0E8BF"/>
<path d="M439.849 205.275H432.569V206.082H439.849V205.275Z" fill="#E0E8BF"/>
<path d="M375.539 205.275H339.137V206.082H375.539V205.275Z" fill="#E0E8BF"/>
<path d="M338.895 205.275H331.614V206.082H338.895V205.275Z" fill="#E0E8BF"/>
<path d="M331.614 209.037V209.574H329.43V209.037H329.188V209.843H338.894V209.037H331.614Z" fill="#E0E8BF"/>
<path d="M390.1 209.037H339.137V209.843H390.1V209.037Z" fill="#E0E8BF"/>
<path d="M410.243 209.037H402.962V209.843H410.243V209.037Z" fill="#E0E8BF"/>
<path d="M431.356 209.037H410.97V209.843H431.356V209.037Z" fill="#E0E8BF"/>
<path d="M439.849 209.037H432.569V209.843H439.849V209.037Z" fill="#E0E8BF"/>
<path d="M390.1 212.799H354.426V213.605H390.1V212.799Z" fill="#E0E8BF"/>
<path d="M338.895 212.799H329.188V213.605H338.895V212.799Z" fill="#E0E8BF"/>
<path d="M351.271 212.799H339.137V213.605H351.271V212.799Z" fill="#E0E8BF"/>
<path d="M431.356 212.799H410.97V213.605H431.356V212.799Z" fill="#E0E8BF"/>
<path d="M410.242 212.799H396.41V213.605H410.242V212.799Z" fill="#E0E8BF"/>
<path d="M439.849 212.799H432.569V213.605H439.849V212.799Z" fill="#E0E8BF"/>
<path d="M333.799 216.56H329.188V217.367H333.799V216.56Z" fill="#E0E8BF"/>
<path d="M338.894 216.56H335.012V217.367H338.894V216.56Z" fill="#E0E8BF"/>
<path d="M351.271 216.56H339.137V217.367H351.271V216.56Z" fill="#E0E8BF"/>
<path d="M390.1 216.56H354.426V217.367H390.1V216.56Z" fill="#E0E8BF"/>
<path d="M410.242 216.56H396.41V217.367H410.242V216.56Z" fill="#E0E8BF"/>
<path d="M431.356 216.56H410.97V217.367H431.356V216.56Z" fill="#E0E8BF"/>
<path d="M439.849 216.56H432.569V217.367H439.849V216.56Z" fill="#E0E8BF"/>
<path d="M402.719 220.323H364.619V221.129H402.719V220.323Z" fill="#E0E8BF"/>
<path d="M333.799 220.323H329.188V221.129H333.799V220.323Z" fill="#E0E8BF"/>
<path d="M340.35 220.323H335.012V221.129H340.35V220.323Z" fill="#E0E8BF"/>
<path d="M351.271 220.323H342.777V221.129H351.271V220.323Z" fill="#E0E8BF"/>
<path d="M362.92 220.323H354.426V221.129H362.92V220.323Z" fill="#E0E8BF"/>
<path d="M410.243 220.323H404.176V221.129H410.243V220.323Z" fill="#E0E8BF"/>
<path d="M439.85 220.323H410.97V221.129H439.85V220.323Z" fill="#E0E8BF"/>
<path d="M410.243 224.085H404.176V224.891H410.243V224.085Z" fill="#E0E8BF"/>
<path d="M333.798 224.085H328.459V224.891H333.798V224.085Z" fill="#E0E8BF"/>
<path d="M351.271 224.085H342.777V224.891H351.271V224.085Z" fill="#E0E8BF"/>
<path d="M340.35 224.085H335.012V224.891H340.35V224.085Z" fill="#E0E8BF"/>
<path d="M362.92 224.085H354.426V224.891H362.92V224.085Z" fill="#E0E8BF"/>
<path d="M402.719 224.085H364.619V224.891H402.719V224.085Z" fill="#E0E8BF"/>
<path d="M439.85 224.085H410.97V224.891H439.85V224.085Z" fill="#E0E8BF"/>
<path d="M333.798 227.846H328.459V228.653H333.798V227.846Z" fill="#E0E8BF"/>
<path d="M350.057 227.846H342.777V228.653H350.057V227.846Z" fill="#E0E8BF"/>
<path d="M362.92 227.846H354.668V228.653H362.92V227.846Z" fill="#E0E8BF"/>
<path d="M340.35 227.846H335.012V228.653H340.35V227.846Z" fill="#E0E8BF"/>
<path d="M375.054 227.846H364.619V228.653H375.054V227.846Z" fill="#E0E8BF"/>
<path d="M386.217 227.846H376.51V228.653H386.217V227.846Z" fill="#E0E8BF"/>
<path d="M402.719 227.846H388.401V228.653H402.719V227.846Z" fill="#E0E8BF"/>
<path d="M439.85 227.846H404.176V228.653H439.85V227.846Z" fill="#E0E8BF"/>
<path d="M340.351 231.608H328.459V232.414H340.351V231.608Z" fill="#E0E8BF"/>
<path d="M350.057 231.608H342.777V232.414H350.057V231.608Z" fill="#E0E8BF"/>
<path d="M375.054 231.608H354.668V232.414H375.054V231.608Z" fill="#E0E8BF"/>
<path d="M386.217 231.608H376.51V232.414H386.217V231.608Z" fill="#E0E8BF"/>
<path d="M402.719 231.608H388.401V232.414H402.719V231.608Z" fill="#E0E8BF"/>
<path d="M439.85 231.608H404.176V232.414H439.85V231.608Z" fill="#E0E8BF"/>
<path d="M397.366 173.461H332.647V227.46H397.366V173.461Z" fill="#353535"/>
<path d="M397.376 173.461H332.637V177.504H397.376V173.461Z" fill="#707070"/>
<path d="M393.976 175.429C393.976 176.205 393.408 176.834 392.707 176.834C392.006 176.834 391.438 176.205 391.438 175.429C391.438 174.653 392.007 174.024 392.707 174.024C393.408 174.024 393.976 174.653 393.976 175.429Z" fill="#FF5821"/>
<path d="M387.885 175.429C387.885 176.205 387.317 176.834 386.616 176.834C385.915 176.834 385.347 176.205 385.347 175.429C385.347 174.653 385.915 174.024 386.616 174.024C387.317 174.024 387.885 174.653 387.885 175.429Z" fill="#889F33"/>
<path d="M382.133 175.429C382.133 176.205 381.565 176.834 380.864 176.834C380.163 176.834 379.594 176.205 379.594 175.429C379.594 174.653 380.163 174.024 380.864 174.024C381.564 174.024 382.133 174.653 382.133 175.429Z" fill="#121314"/>
<path d="M339.579 182.762H337.041V183.565H339.579V182.762Z" fill="#889F33"/>
<path d="M383.631 182.762H348.099V183.565H383.631V182.762Z" fill="#889F33"/>
<path d="M339.579 185.973H337.041V186.776H339.579V185.973Z" fill="#889F33"/>
<path d="M348.099 185.973V186.776H375.111V186.174H380.911V186.776H381.274V185.973H348.099Z" fill="#889F33"/>
<path d="M339.579 189.185H337.041V189.988H339.579V189.185Z" fill="#889F33"/>
<path d="M371.848 189.185H348.099V189.988H371.848V189.185Z" fill="#889F33"/>
<path d="M381.274 189.586V189.185H380.911V189.988H383.631V189.586H381.274Z" fill="#889F33"/>
<path d="M348.1 192.397V192.798H339.579V192.397H337.041V193.199H357.526V192.397H348.1Z" fill="#889F33"/>
<path d="M371.848 192.397H367.316V193.199H371.848V192.397Z" fill="#889F33"/>
<path d="M383.813 192.397H380.368V193.199H383.813V192.397Z" fill="#889F33"/>
<path d="M348.1 195.609H337.041V196.412H348.1V195.609Z" fill="#889F33"/>
<path d="M385.263 195.609H367.316V196.412H385.263V195.609Z" fill="#889F33"/>
<path d="M348.1 198.82H337.041V199.623H348.1V198.82Z" fill="#889F33"/>
<path d="M385.262 198.82H367.316V199.422H357.526V198.82H356.801V199.623H364.959V199.623H371.122V199.623H372.029V199.02H375.836V199.623H378.011V199.221H385.262V198.82Z" fill="#889F33"/>
<path d="M364.959 202.032H356.801V202.232H348.1V202.032H337.041V202.835H364.959V202.032Z" fill="#889F33"/>
<path d="M372.029 202.032H371.122V202.835H372.029V202.032Z" fill="#889F33"/>
<path d="M378.011 202.032H375.836V202.835H378.011V202.032Z" fill="#889F33"/>
<path d="M348.643 212.87H337.585V213.673H348.643V212.87Z" fill="#FF5821"/>
<path d="M360.427 212.87H358.251V213.673H360.427V212.87Z" fill="#FF5821"/>
<path d="M375.655 212.87H366.047V213.673H375.655V212.87Z" fill="#FF5821"/>
<path d="M348.644 216.685H337.404V217.487H348.644V216.685Z" fill="#FF5821"/>
<path d="M360.427 216.685H358.251V217.487H360.427V216.685Z" fill="#FF5821"/>
<path d="M367.316 216.685H366.047V217.487H367.316V216.685Z" fill="#FF5821"/>
<path d="M375.654 216.685H372.21V217.487H375.654V216.685Z" fill="#FF5821"/>
<path d="M348.643 220.498H337.223V221.301H348.643V220.498Z" fill="#FF5821"/>
<path d="M374.748 220.498H358.251V221.301H374.748V220.498Z" fill="#FF5821"/>
<path d="M449.971 194.396H402.21V234.246H449.971V194.396Z" fill="#353535"/>
<path d="M449.979 194.396H402.203V197.38H449.979V194.396Z" fill="#707070"/>
<path d="M447.47 195.848C447.47 196.421 447.051 196.885 446.533 196.885C446.016 196.885 445.597 196.421 445.597 195.848C445.597 195.275 446.016 194.811 446.533 194.811C447.05 194.811 447.47 195.275 447.47 195.848Z" fill="#FF5821"/>
<path d="M442.975 195.848C442.975 196.421 442.555 196.885 442.038 196.885C441.521 196.885 441.102 196.421 441.102 195.848C441.102 195.275 441.521 194.811 442.038 194.811C442.555 194.811 442.975 195.275 442.975 195.848Z" fill="#889F33"/>
<path d="M438.73 195.848C438.73 196.421 438.31 196.885 437.793 196.885C437.276 196.885 436.857 196.421 436.857 195.848C436.857 195.275 437.276 194.811 437.793 194.811C438.31 194.811 438.73 195.275 438.73 195.848Z" fill="#121314"/>
<path d="M411.817 202.562H405.16V202.846H411.817V202.562Z" fill="#121314"/>
<path d="M425.771 202.562H417.066V202.846H425.771V202.562Z" fill="#121314"/>
<path d="M416.298 202.562H412.714V202.846H416.298V202.562Z" fill="#121314"/>
<path d="M429.1 202.562H427.052V202.846H429.1V202.562Z" fill="#121314"/>
<path d="M440.238 202.562H429.484V202.846H440.238V202.562Z" fill="#121314"/>
<path d="M442.799 202.562H440.622V202.846H442.799V202.562Z" fill="#121314"/>
<path d="M446.639 202.562H443.054V202.846H446.639V202.562Z" fill="#121314"/>
<path d="M411.817 203.271H405.16V203.696H411.817V203.271Z" fill="#121314"/>
<path d="M416.298 203.271H412.714V203.696H416.298V203.271Z" fill="#121314"/>
<path d="M425.771 203.271H417.066V203.696H425.771V203.271Z" fill="#121314"/>
<path d="M429.1 203.271H427.052V203.696H429.1V203.271Z" fill="#121314"/>
<path d="M429.484 203.271V203.696H435.757V203.413H436.141V203.696H440.238V203.271H429.484Z" fill="#121314"/>
<path d="M442.799 203.271H440.622V203.696H442.799V203.271Z" fill="#121314"/>
<path d="M446.639 203.271H443.054V203.696H446.639V203.271Z" fill="#121314"/>
<path d="M416.426 206.957H405.16V207.24H416.426V206.957Z" fill="#121314"/>
<path d="M421.163 206.957H416.682V207.24H421.163V206.957Z" fill="#121314"/>
<path d="M425.772 206.957H422.187V207.24H425.772V206.957Z" fill="#121314"/>
<path d="M435.757 206.957H427.052V207.24H435.757V206.957Z" fill="#121314"/>
<path d="M446.639 206.957H440.878V207.24H446.639V206.957Z" fill="#121314"/>
<path d="M440.238 206.957H436.141V207.24H440.238V206.957Z" fill="#121314"/>
<path d="M421.163 207.665H416.682V208.799H421.163V207.665Z" fill="#121314"/>
<path d="M416.426 207.665H405.16V208.799H416.426V207.665Z" fill="#121314"/>
<path d="M425.772 207.665H422.187V208.799H425.772V207.665Z" fill="#121314"/>
<path d="M440.238 207.665H436.141V208.657H435.757V207.665H427.052V208.799H440.238V207.665Z" fill="#121314"/>
<path d="M440.878 207.665V208.799H442.926V208.09H444.591V208.799H446.639V207.665H440.878Z" fill="#121314"/>
<path d="M411.306 213.114H405.289V214.425H408.873V213.193H411.306V213.114Z" fill="#121314"/>
<path d="M435.885 213.114H434.093V213.193H435.885V213.114Z" fill="#121314"/>
<path d="M441.006 213.114V213.193H443.311V214.425H446.767V213.114H441.006Z" fill="#121314"/>
<path d="M440.365 213.114H437.805V213.193H440.365V213.114Z" fill="#121314"/>
<path d="M421.291 221.131H416.81V221.636H421.291V221.131Z" fill="#121314"/>
<path d="M421.291 218.438H417.451V219.289H421.291V218.438Z" fill="#121314"/>
<path d="M405.289 218.438V219.289H409.641V218.58H409.769V219.289H410.665V218.438H405.289Z" fill="#121314"/>
<path d="M415.659 218.438H410.794V219.289H415.659V218.438Z" fill="#121314"/>
<path d="M416.555 221.131H410.794V221.636H416.555V221.131Z" fill="#121314"/>
<path d="M409.641 221.131H405.289V221.636H409.641V221.131Z" fill="#121314"/>
<path d="M410.665 221.131H409.769V221.636H410.665V221.131Z" fill="#121314"/>
<path d="M425.26 218.438H422.315V219.289H425.26V218.438Z" fill="#121314"/>
<path d="M425.26 221.131H422.315V221.636H425.26V221.131Z" fill="#121314"/>
<path d="M440.365 218.438H437.805V219.289H440.365V218.438Z" fill="#121314"/>
<path d="M435.885 218.438H427.18V219.289H435.885V218.438Z" fill="#121314"/>
<path d="M435.445 226.299H426.74V227.149H435.445V226.299Z" fill="#121314"/>
<path d="M445.901 226.299H437.196V227.149H445.901V226.299Z" fill="#121314"/>
<path d="M436.014 221.131H427.18V221.636H436.014V221.131Z" fill="#121314"/>
<path d="M440.365 221.131H437.805V221.636H440.365V221.131Z" fill="#121314"/>
<path d="M443.054 218.438H441.006V219.289H443.054V218.438Z" fill="#121314"/>
<path d="M446.766 218.438H444.718V219.289H446.766V218.438Z" fill="#121314"/>
<path d="M443.054 221.131H441.006V221.636H443.054V221.131Z" fill="#121314"/>
<path d="M446.766 221.131H444.718V221.636H446.766V221.131Z" fill="#121314"/>
<path d="M421.194 223.351V223.431H423.498V224.662H426.955V223.351H421.194Z" fill="#121314"/>
<path d="M420.553 228.675H417.993V229.526H420.553V228.675Z" fill="#121314"/>
<path d="M416.073 228.675H407.367V229.526H416.073V228.675Z" fill="#121314"/>
<path d="M416.201 231.369H407.367V231.874H416.201V231.369Z" fill="#121314"/>
<path d="M420.553 231.369H417.993V231.874H420.553V231.369Z" fill="#121314"/>
<path d="M423.242 228.675H421.194V229.526H423.242V228.675Z" fill="#121314"/>
<path d="M426.954 228.675H424.906V229.526H426.954V228.675Z" fill="#121314"/>
<path d="M423.242 231.369H421.194V231.874H423.242V231.369Z" fill="#121314"/>
<path d="M426.954 231.369H424.906V231.874H426.954V231.369Z" fill="#121314"/>
<path d="M411.817 200.436H405.16V201.428H411.817V200.436Z" fill="#121314"/>
<path d="M416.298 200.436H412.714V201.428H416.298V200.436Z" fill="#121314"/>
<path d="M425.771 200.436H417.066V201.428H425.771V200.436Z" fill="#121314"/>
<path d="M440.238 201.429V200.436H427.052V201.429H429.101V200.719H429.484V201.429H440.238Z" fill="#121314"/>
<path d="M440.622 200.436V201.429H442.798V201.145H443.054V201.429H446.639V200.436H440.622Z" fill="#121314"/>
<path d="M407.722 285.366L371.62 285.598L371.637 288.848L407.739 288.616L407.722 285.366Z" fill="#9C9E8F"/>
<path d="M301.602 286.059L299.418 289.323L380.867 288.797L380.851 285.548L301.602 286.059Z" fill="#C9CCBC"/>
<path d="M309.903 283.244L301.602 286.059L407.707 285.375L405.491 282.627L309.903 283.244Z" fill="#3D3D3D"/>
<path d="M453.305 289.323H426.713C429.335 284.929 433.678 280.692 441.829 281.24C442.833 281.307 443.784 281.469 444.679 281.708C449.185 282.916 452.259 286.108 453.305 289.323Z" fill="#728425"/>
<path d="M453.305 289.323H435.212C437.148 286.078 440.025 282.918 444.679 281.708C449.185 282.916 452.259 286.108 453.305 289.323Z" fill="#889F33"/>
<path d="M500.881 283.125C501.097 286.582 498.741 289.385 495.62 289.385H477.906C474.784 289.385 472.57 286.582 472.96 283.125L477.436 243.482C477.826 240.026 479.876 237.223 482.013 237.223H494.138C496.275 237.223 498.183 240.026 498.399 243.482L500.881 283.125Z" fill="#3D3D3D"/>
<path d="M496.06 282.03C496.233 284.732 494.351 286.923 491.858 286.923H477.71C475.217 286.923 473.448 284.732 473.76 282.03L477.335 251.045C477.646 248.343 479.283 246.153 480.99 246.153H490.674C492.38 246.153 493.904 248.343 494.077 251.045L496.06 282.03Z" fill="#707070"/>
<path d="M485.267 284.245C480.122 284.245 475.936 279.61 475.936 273.913C475.936 268.216 480.122 263.582 485.267 263.582C490.412 263.582 494.597 268.217 494.597 273.913C494.597 279.611 490.412 284.245 485.267 284.245ZM485.267 264.351C480.505 264.351 476.631 268.641 476.631 273.914C476.631 279.187 480.505 283.477 485.267 283.477C490.029 283.477 493.903 279.187 493.903 273.914C493.903 268.641 490.029 264.351 485.267 264.351Z" fill="#3D3D3D"/>
<path d="M485.267 265.987C481.319 265.987 478.108 269.543 478.108 273.914C478.108 278.285 481.319 281.841 485.267 281.841C489.214 281.841 492.426 278.285 492.426 273.914C492.426 269.543 489.214 265.987 485.267 265.987Z" fill="#3D3D3D"/>
<path d="M485.267 261.148C482.358 261.148 479.99 258.528 479.99 255.306C479.99 252.084 482.358 249.464 485.267 249.464C488.176 249.464 490.543 252.084 490.543 255.306C490.543 258.528 488.176 261.148 485.267 261.148ZM485.267 249.898C482.574 249.898 480.383 252.324 480.383 255.306C480.383 258.287 482.574 260.713 485.267 260.713C487.959 260.713 490.15 258.287 490.15 255.306C490.15 252.324 487.959 249.898 485.267 249.898Z" fill="#3D3D3D"/>
<path d="M485.267 250.823C483.035 250.823 481.219 252.833 481.219 255.305C481.219 257.777 483.035 259.788 485.267 259.788C487.499 259.788 489.315 257.777 489.315 255.305C489.315 252.834 487.499 250.823 485.267 250.823Z" fill="#3D3D3D"/>
<path d="M307.014 481.22C302.599 478.455 298.887 470.486 297.114 465.589C294.256 457.696 295.16 471.477 289.659 469.951C287.402 469.326 285.916 473.036 285.389 475.188C284.133 480.321 285.09 488.804 285.89 492.157C292.449 493.106 295.835 493.056 302.45 493.154C306.257 493.21 314.489 493.265 316.78 489.436C314.983 484.081 310.899 483.653 307.014 481.22Z" fill="#212030"/>
<path d="M287.307 441.619C287.198 447.691 286.317 453.409 286.816 459.658C287.239 464.959 286.003 473.25 289.837 477.128C297.387 472.979 297.327 454.023 299.415 445.886L287.307 441.619Z" fill="#FFA471"/>
<path d="M282.595 460.339L297.74 461.4C298.199 459.266 298.648 457.125 299.093 454.972C305.345 424.774 315.064 391.749 316.881 359.944L289.982 353.394C285.182 354.02 282.424 372.521 281.601 378.954C279.78 393.19 281.402 407.759 281.92 422.03C282.362 434.23 283.047 447.438 282.595 460.339Z" fill="#212030"/>
<path d="M372.722 481.22C368.307 478.455 364.595 470.486 362.822 465.589C359.965 457.696 360.869 471.477 355.367 469.951C353.11 469.326 351.625 473.036 351.097 475.188C349.84 480.321 350.798 488.804 351.599 492.157C358.157 493.106 361.543 493.056 368.159 493.154C371.966 493.21 380.197 493.265 382.488 489.436C380.692 484.081 376.607 483.653 372.722 481.22Z" fill="#212030"/>
<path d="M353.015 441.619C352.906 447.691 352.025 453.409 352.524 459.658C352.947 464.959 351.711 473.25 355.545 477.128C363.095 472.979 363.036 454.023 365.124 445.886L353.015 441.619Z" fill="#FFA471"/>
<path d="M382.588 359.944C382.585 359.985 382.583 360.029 382.579 360.071C381.313 382.012 376.292 404.537 371.251 426.308C368.992 436.054 366.732 445.647 364.801 454.972C364.356 457.125 363.907 459.265 363.45 461.4L348.304 460.338C348.755 447.438 348.071 434.23 347.629 422.03C347.111 407.759 345.488 393.19 347.309 378.953C347.487 377.559 347.758 375.597 348.119 373.372C349.024 367.8 350.507 360.585 352.586 356.522C353.504 354.725 354.539 353.545 355.692 353.394L382.588 359.944Z" fill="#212030"/>
<path d="M382.579 360.071C382.216 361.294 381.582 362.557 380.642 363.853C376.972 368.918 369.88 371.336 362.005 372.46C357.468 373.109 352.672 373.326 348.119 373.372C342.732 373.426 337.687 373.238 333.821 373.238C322.847 373.238 311.99 373.27 301.174 372.262C295.303 371.716 287.878 372.268 281.52 371.329C279.429 371.019 277.452 370.549 275.685 369.825L278.698 330.826C299.18 328.837 309.214 325.927 329.169 330.582C336.004 332.176 387.847 342.307 382.579 360.071Z" fill="#212030"/>
<path d="M371.251 426.308C368.992 436.054 366.732 445.647 364.801 454.972C364.356 457.125 363.907 459.265 363.45 461.4L348.304 460.337C348.755 447.438 348.071 434.229 347.629 422.03C347.111 407.759 345.488 393.19 347.309 378.953C347.487 377.559 347.758 375.597 348.119 373.372C342.732 373.425 337.687 373.237 333.821 373.237C322.847 373.237 311.99 373.269 301.174 372.262C295.303 371.716 287.878 372.267 281.52 371.329L283.286 352.748C285.345 356.08 299.488 355.476 303.907 355.673C313.661 356.111 323.268 355.855 332.969 356.404C338.831 356.735 345.742 356.47 352.586 356.521C360.224 356.579 367.782 357.037 373.719 359.168C368.896 359.887 365.012 361.697 360.627 363.899C363.286 365.629 367.799 366.502 370.417 367.942C366.903 367.492 364.154 369.351 362.005 372.459C356.484 380.444 354.934 396.685 354.618 403.208C354.268 410.399 354.838 420.318 360.599 425.001C364.33 428.039 367.788 427.559 371.251 426.308Z" fill="#171721"/>
<path d="M292.597 166.542H289.552C286.286 166.542 283.629 163.648 283.629 160.09V158.126C283.629 154.568 286.286 151.674 289.552 151.674H292.597C295.864 151.674 298.521 154.568 298.521 158.126V160.09C298.521 163.648 295.864 166.542 292.597 166.542ZM289.553 152.792C286.893 152.792 284.73 155.185 284.73 158.126V160.09C284.73 163.032 286.893 165.425 289.553 165.425H292.598C295.257 165.425 297.421 163.032 297.421 160.09V158.126C297.421 155.184 295.257 152.792 292.598 152.792H289.553Z" fill="#636363"/>
<path d="M289.839 163.133C289.676 164.629 289.254 169.995 289.331 173.004C289.426 176.748 289.843 180.633 290.501 184.244C286.777 185.759 281.153 180.618 278.734 177.897C275.071 173.774 273.012 168.776 272.403 163.069L289.839 163.133Z" fill="#F2EDEE"/>
<path d="M287.207 166.092C285.02 166.053 283.486 170.023 283.294 172.05C282.938 175.822 286.209 179.355 285.517 182.883C282.998 181.809 279.974 178.178 278.044 176.046C276.076 173.873 272.504 169.707 272.635 166.412L287.207 166.092Z" fill="#F2F0EB"/>
<path d="M292.289 171.102C292.113 177.717 290.928 184.257 290.957 185.408C290.957 185.408 290.957 185.408 290.955 185.412C290.96 185.527 290.96 185.646 290.953 185.759C290.946 186.263 290.878 186.768 290.682 187.226C290.482 187.676 290.156 188.079 289.636 188.383C287.495 189.636 284.71 189.751 282.068 189.193C281.628 189.1 281.19 188.988 280.76 188.858C280.465 188.773 280.177 188.678 279.891 188.575C278.909 188.222 277.985 187.788 277.163 187.3C275.944 186.574 274.953 185.728 274.345 184.856C274.105 184.507 273.925 184.153 273.815 183.803C273.808 183.961 273.799 184.132 273.793 184.317C273.788 184.407 273.784 184.497 273.782 184.59C273.779 184.627 273.777 184.666 273.777 184.705C273.77 184.817 273.766 184.931 273.762 185.048C273.762 185.087 273.759 185.126 273.757 185.165V185.192C273.753 185.292 273.75 185.392 273.746 185.494C273.742 185.628 273.737 185.767 273.731 185.906C273.726 186.05 273.722 186.199 273.718 186.352C273.705 186.767 273.689 187.205 273.676 187.669C273.656 188.373 273.636 189.112 273.616 189.87C273.612 190.097 273.605 190.326 273.601 190.555C273.568 191.884 273.539 193.258 273.513 194.596C273.511 194.715 273.509 194.835 273.506 194.952C273.486 195.907 273.471 196.844 273.456 197.726C273.436 198.92 273.418 200.019 273.407 200.958C273.381 202.803 273.372 204.016 273.381 204.067C273.361 204.075 273.339 204.079 273.319 204.084C271.649 204.579 269.053 204.805 266.066 204.794C260.633 204.774 253.906 203.963 249.104 202.539L249.102 202.536C247.187 201.971 245.578 201.306 244.479 200.555C244.092 200.291 243.771 200.016 243.519 199.733C243.511 199.724 243.502 199.714 243.495 199.704C243.451 199.655 243.412 199.604 243.372 199.553C243.927 198.456 244.316 196.009 244.596 192.923C244.627 192.582 244.658 192.233 244.684 191.877C244.728 191.343 244.766 190.792 244.803 190.229C244.926 188.343 245.018 186.32 245.091 184.284C245.23 180.265 245.285 176.194 245.324 173.026V173.024C245.347 171.349 245.362 169.926 245.384 168.895C245.402 168.104 245.406 167.417 245.399 166.857C245.3 160.003 244.58 153.175 244.145 146.304C243.48 135.77 282.504 137.976 282.504 137.976C285.447 140.476 286.433 144.166 287.241 148.225C287.254 148.293 287.267 148.361 287.28 148.43C287.527 149.678 287.76 150.96 288.029 152.255C288.06 152.403 288.093 152.554 288.126 152.703C288.152 152.827 288.181 152.954 288.207 153.078C288.21 153.086 288.21 153.091 288.211 153.098C288.223 153.147 288.234 153.193 288.245 153.242C288.348 153.698 288.456 154.156 288.573 154.612C288.625 154.809 288.676 155.004 288.731 155.202C288.96 156.03 289.22 156.856 289.526 157.673C289.646 157.805 289.761 157.946 289.871 158.093C290.08 158.368 290.274 158.668 290.45 158.99C291.157 160.264 291.621 161.88 291.909 163.684C292.274 165.964 292.357 168.538 292.289 171.102Z" fill="#FFA471"/>
<path d="M290.681 187.225C290.481 187.676 290.155 188.08 289.635 188.384C284.301 191.503 274.985 187.557 273.815 183.804C273.583 188.765 273.164 207.57 273.35 208.533C266.975 210.472 246.717 203.933 243.372 199.554C245.321 195.693 245.25 175.132 245.383 168.897L272.237 161.936C272.633 162.764 272.185 164.541 272.152 165.597C272.109 166.944 272.131 168.364 272.21 169.709C272.358 172.27 273.002 174.934 274.002 177.302C275.852 181.684 279.413 186.39 283.888 187.536C285.763 188.016 288.45 188.068 290.681 187.225Z" fill="#E07F4F"/>
<path d="M294.708 167.163C294.529 166.806 293.371 166.202 293.031 165.781C292.306 164.882 291.934 163.648 291.437 162.595C290.757 161.156 289.809 158.271 288.837 157.609L289.243 171.78C290.721 171.214 296.738 171.208 294.708 167.163Z" fill="#FFA471"/>
<path d="M290.451 158.99C290.389 159.054 290.326 159.107 290.26 159.153C290.081 159.28 289.887 159.358 289.681 159.378C289.24 159.417 288.811 159.185 288.45 158.763C287.949 158.178 287.585 157.225 287.499 156.121C287.466 155.687 287.479 155.266 287.534 154.876C287.633 154.137 287.873 153.506 288.208 153.079C288.21 153.087 288.21 153.091 288.212 153.099C288.223 153.147 288.234 153.194 288.245 153.243C288.349 153.699 288.456 154.157 288.573 154.613C288.626 154.81 288.677 155.005 288.731 155.202C288.96 156.031 289.221 156.857 289.526 157.674C289.647 157.806 289.762 157.947 289.871 158.093C290.081 158.369 290.275 158.668 290.451 158.99Z" fill="#121C26"/>
<path d="M288.573 154.613C288.214 154.674 287.862 154.764 287.534 154.876C286.651 155.176 285.945 155.639 285.762 156.19C285.993 154.608 286.881 153.275 288.126 152.705C288.153 152.829 288.181 152.956 288.208 153.08C288.21 153.088 288.21 153.092 288.212 153.1C288.223 153.148 288.234 153.195 288.245 153.244C288.348 153.699 288.456 154.157 288.573 154.613Z" fill="#121C26"/>
<path d="M289.446 149.108C288.559 148.11 286.195 147.827 284.723 148.918C283.155 149.861 281.18 152.344 281.459 153.132C281.592 153.777 285.625 152.899 286.607 152.618C287.568 152.267 291.841 151.916 289.446 149.108Z" fill="#49211C"/>
<path d="M243.557 134.11C247.03 122.795 257.227 124.102 268.946 124.55C281.458 125.026 290.64 130.254 290.64 130.254C290.459 139.279 291.227 139.835 287.984 148.045C285.949 148.347 279.427 160.538 271.48 154.133C274.37 159.645 274.753 173.716 272.105 179.943C269.681 185.64 267.85 181.857 263.71 185.172C262.904 183.542 261.738 181.923 260.568 180.806C261.018 184.033 261.996 187.417 261.504 190.792C258.069 192.872 254.907 193.047 250.917 193.252C245.145 193.548 244.409 192.901 242.717 187.131C240.122 178.278 240.569 173.618 236.936 165.193C234.175 156.434 228.854 142.435 243.557 134.11Z" fill="#49211C"/>
<path d="M270.214 162.287L297.641 157.031L297.971 158.859L271.301 164.109L270.214 162.287Z" fill="#636363"/>
<path d="M266.174 161.785C269.693 157.316 273.805 162.951 275.44 165.178C275.44 165.178 275.401 172.943 273.51 174.74C271.221 176.914 267.902 174.838 266.437 172.635C264.493 169.71 263.538 165.133 266.174 161.785Z" fill="#FFA471"/>
<path d="M266.314 164.262C267.416 160.871 270.343 162.503 271.634 164.785C267.119 162.888 266.632 168.664 267.757 171.929C266.654 169.633 265.436 166.967 266.314 164.262Z" fill="#E07F4F"/>
<path d="M308.415 332.211C308.337 332.257 308.258 332.303 308.179 332.349C302.817 335.462 292.681 338.587 286.354 340.091C284.754 340.469 283.4 340.747 282.425 340.893C271.667 342.516 261.26 342.336 250.776 339.755C248.008 328.567 241.614 318.242 239.267 306.817C236.557 293.621 232.051 274.511 231.479 260.808C231.054 250.668 225.216 224.277 225.77 214.06C226.178 206.553 235.355 214.789 237.583 208.098L237.649 201.978C237.229 198.292 236.637 194.406 237.187 190.611C247.316 190.178 261.273 188.72 270.219 193.4C278.254 197.604 287.96 199.055 295.081 206.162C299.176 210.245 300.479 244.73 302.566 275.912C304.237 300.864 306.405 323.703 310.908 327.169C312.804 328.632 311.424 330.416 308.415 332.211Z" fill="#FF5821"/>
<path d="M308.179 332.349C302.817 335.462 292.681 338.587 286.354 340.091C284.544 324.511 289.637 301.506 286.991 290.245C284.243 278.565 283.376 268.45 281.708 256.611C280.981 251.451 281.811 240.685 281.576 235.493C281.406 231.781 282.262 227.218 281.133 223.818L292.581 255.017C293.488 263.029 298.932 269.108 302.566 275.914C304.237 300.866 306.405 323.705 310.908 327.171C311.448 327.587 312.746 329.73 308.179 332.349Z" fill="#D83A0F"/>
<path d="M281.971 190.091C283.062 182.65 278.498 175.639 271.777 174.431C265.057 173.224 258.725 178.277 257.634 185.718C256.543 193.159 261.107 200.171 267.828 201.378C274.548 202.586 280.88 197.533 281.971 190.091Z" fill="#212030"/>
<path d="M280.794 188.347C281.02 182.833 277.166 178.16 272.186 177.91C267.207 177.66 262.987 181.928 262.761 187.441C262.535 192.955 266.389 197.628 271.369 197.878C276.348 198.128 280.568 193.861 280.794 188.347Z" fill="#3C3C56"/>
<path d="M278.146 192.646C280.51 190.028 280.51 185.784 278.146 183.166C275.782 180.549 271.948 180.549 269.584 183.166C267.22 185.784 267.22 190.028 269.584 192.646C271.948 195.263 275.782 195.263 278.146 192.646Z" fill="#212030"/>
<path d="M274.308 185.305C264.315 188.826 248.305 186.254 238.74 181.983C238.784 184.127 238.314 188.785 238.426 190.911C243.315 193.293 248.42 193.548 253.835 193.836C259.454 194.135 269.874 192.51 274.968 189.936L274.308 185.305Z" fill="#8A8A8E"/>
<path d="M277.17 187.499C277.17 188.979 276.086 190.18 274.749 190.18C273.411 190.18 272.327 188.979 272.327 187.499C272.327 186.018 273.411 184.818 274.749 184.818C276.086 184.818 277.17 186.018 277.17 187.499Z" fill="#8A8A8E"/>
<path d="M321.293 287.661C321.114 287.824 320.934 287.985 320.749 288.141C317.907 290.547 314.213 291.802 307.056 285.648C306.253 284.958 305.407 284.175 304.516 283.291C298.825 277.653 294.09 266.275 289.712 259.645C289.209 258.885 288.708 258.1 288.208 257.288C281.021 245.642 274.232 228.997 274.414 214.995C274.491 209.094 275.711 204.619 280.856 203.003C284.316 201.916 290.819 197.619 299.208 212.373C299.208 212.373 312.938 244.165 319.316 266.582C322.292 277.048 323.668 285.472 321.293 287.661Z" fill="#FF5821"/>
<path d="M369.58 273.24C364.488 271.363 358.306 274.984 353.668 277.243L358.369 282.589C361.959 283.351 363.446 283.377 367.051 283.264C376.912 282.955 377.888 284.671 381.204 283.686C380.48 278.834 374.605 275.092 369.58 273.24Z" fill="#FFA471"/>
<path d="M362.22 283.757C361.798 284.734 352.182 287.43 342.723 289.741C334.858 291.659 327.097 293.311 324.824 293.485C317.914 294.007 311.142 291.189 307.056 285.648C304.936 282.774 303.538 279.172 303.217 274.921C303.193 274.626 303.175 274.326 303.165 274.024L311.937 266.685C314.438 266.087 316.833 266.138 319.316 266.582C328.102 268.147 337.984 274.633 357.563 274.814C357.563 274.814 363.207 281.467 362.22 283.757Z" fill="#FF5821"/>
<path d="M342.723 289.74C334.858 291.658 327.097 293.311 324.824 293.484C317.914 294.006 311.142 291.188 307.056 285.648C306.253 284.958 305.407 284.175 304.516 283.291C298.825 277.653 294.09 266.275 289.712 259.645C289.209 258.885 288.708 258.1 288.208 257.288C284.726 245.976 280.703 239.303 281.048 227.728C284.68 246.373 299.922 269.877 303.217 274.92C305.885 279.008 308.915 282.823 312.648 286.164C312.19 283.434 312.302 280.344 312.492 277.587C314.488 283.074 317.251 286.315 320.749 288.141C324.577 290.14 329.288 290.445 334.847 290.14C337.396 290.001 340.06 289.891 342.723 289.74Z" fill="#D83A0F"/>
<path d="M225.306 414.231C225.306 415.76 224.529 417.001 223.57 417.001H211.894C210.935 417.001 210.157 415.76 210.157 414.231C210.157 412.702 210.935 411.461 211.894 411.461H223.57C224.529 411.461 225.306 412.702 225.306 414.231Z" fill="#44283E"/>
<path d="M220.189 415.424C224.309 414.697 228.511 415.037 232.631 414.28C236.799 413.515 240.232 410.972 243.662 408.396C247.048 405.853 250.396 403.222 254.162 401.398C258.222 399.431 262.911 399.537 267.231 398.873C268.5 398.678 267.958 396.551 266.701 396.744C262.368 397.41 257.814 397.375 253.707 399.234C249.932 400.944 246.572 403.53 243.222 406.064C239.731 408.703 236.335 411.304 232.101 412.153C228.001 412.975 223.778 412.57 219.66 413.298C218.393 413.52 218.932 415.647 220.189 415.424Z" fill="#44283E"/>
<path d="M350.539 377.359V380.758C350.539 384.415 347.863 387.379 344.559 387.379H208.226C204.924 387.379 202.247 384.415 202.247 380.758V377.359C202.247 373.703 204.924 370.738 208.226 370.738H344.559C347.863 370.738 350.539 373.703 350.539 377.359Z" fill="#553D57"/>
<path d="M356.777 370.738V371.343C356.777 375.465 354.203 379.001 350.539 380.497V380.758C350.539 384.415 347.863 387.379 344.559 387.379H260.546C257.399 387.379 254.815 384.684 254.585 381.261C254.572 381.095 254.567 380.927 254.567 380.757V377.358C254.567 373.701 257.246 370.737 260.546 370.737L356.777 370.738Z" fill="#44283E"/>
<path d="M285.771 405.542H270.627L223.748 379.059H331.857L285.771 405.542Z" fill="#44283E"/>
<path d="M279.9 405.541H270.463L223.582 379.059H257.309L279.9 405.541Z" fill="#553D57"/>
<path d="M281.366 406.866H274.057V435.116H281.366V406.866Z" fill="#44283E"/>
<path opacity="0.7" d="M279.543 419.225H274.424V461.529H279.543V419.225Z" fill="#49363E"/>
<path d="M283.558 419.225H271.864V461.529H283.558V419.225Z" fill="#44283E"/>
<path d="M276.984 419.225H271.864V461.529H276.984V419.225Z" fill="#69698E"/>
<path d="M287.278 408.262C287.278 409.767 286.41 410.985 285.34 410.985H270.1C269.031 410.985 268.163 409.767 268.163 408.262C268.163 407.51 268.38 406.831 268.73 406.338C269.081 405.846 269.565 405.541 270.1 405.541H285.34C286.409 405.541 287.278 406.76 287.278 408.262Z" fill="#553D57"/>
<path d="M287.278 408.262C287.278 409.767 286.41 410.985 285.34 410.985H279.659C278.589 410.985 277.722 409.767 277.722 408.262C277.722 407.51 277.938 406.831 278.289 406.338C278.64 405.846 279.125 405.541 279.66 405.541H285.34C286.409 405.541 287.278 406.76 287.278 408.262Z" fill="#44283E"/>
<path d="M281.691 458.717V482.379C281.691 483.664 281.151 484.809 280.307 485.548C280.014 485.809 279.683 486.018 279.324 486.168C278.924 486.336 278.489 486.426 278.037 486.426C277.584 486.426 277.15 486.336 276.749 486.168C276.39 486.018 276.059 485.809 275.764 485.548C275.655 485.453 275.551 485.352 275.452 485.241C274.79 484.509 274.381 483.495 274.381 482.378V458.716C274.381 457.434 274.921 456.289 275.764 455.549C276.059 455.289 276.39 455.079 276.749 454.93C277.149 454.762 277.584 454.671 278.036 454.671C278.489 454.671 278.923 454.762 279.324 454.93C279.682 455.08 280.013 455.289 280.307 455.549C280.416 455.645 280.52 455.746 280.619 455.856C281.282 456.59 281.691 457.601 281.691 458.717Z" fill="#44283E"/>
<path d="M278.562 473.546C278.562 473.868 278.326 474.129 278.036 474.129C277.745 474.129 277.51 473.868 277.51 473.546V459.703C277.51 459.382 277.745 459.121 278.036 459.121C278.326 459.121 278.562 459.381 278.562 459.703V473.546Z" fill="#553D57"/>
<path d="M279.897 472.993H274.944V480.946H279.897V472.993Z" fill="#44283E"/>
<path d="M276.807 472.993H274.944V480.946H276.807V472.993Z" fill="#69698E"/>
<path d="M275.514 486.153C275.514 490.567 272.282 494.145 268.296 494.145C264.309 494.145 261.078 490.567 261.078 486.153C261.078 481.738 264.309 478.161 268.296 478.161C272.282 478.161 275.514 481.739 275.514 486.153Z" fill="#2D2D3F"/>
<path d="M271.905 486.153C271.905 488.36 270.289 490.15 268.296 490.15C266.303 490.15 264.687 488.36 264.687 486.153C264.687 483.945 266.303 482.156 268.296 482.156C270.29 482.156 271.905 483.946 271.905 486.153Z" fill="#1D1D28"/>
<path d="M280.794 483.486H259.882C260.11 479.373 264.701 476.092 270.336 476.092C271.123 476.092 271.889 476.155 272.627 476.278C277.17 477.023 280.596 479.947 280.794 483.486Z" fill="#69698E"/>
<path d="M280.794 483.486H264.461C264.661 479.947 268.087 477.023 272.627 476.278C277.17 477.023 280.596 479.947 280.794 483.486Z" fill="#44283E"/>
<path d="M215.815 471.957H210.861V479.91H215.815V471.957Z" fill="#44283E"/>
<path d="M212.725 471.957H210.861V479.91H212.725V471.957Z" fill="#49363E"/>
<path d="M211.433 485.116C211.433 489.531 208.201 493.109 204.214 493.109C200.228 493.109 196.996 489.531 196.996 485.116C196.996 480.703 200.228 477.124 204.214 477.124C208.201 477.124 211.433 480.703 211.433 485.116Z" fill="#2D2D3F"/>
<path d="M207.823 485.116C207.823 487.324 206.207 489.113 204.214 489.113C202.22 489.113 200.604 487.324 200.604 485.116C200.604 482.91 202.22 481.12 204.214 481.12C206.207 481.12 207.823 482.91 207.823 485.116Z" fill="#1D1D28"/>
<path d="M216.712 482.45H195.799C196.028 478.338 200.619 475.056 206.254 475.056C207.041 475.056 207.806 475.119 208.545 475.241C213.088 475.987 216.514 478.911 216.712 482.45Z" fill="#69698E"/>
<path d="M216.712 482.45H200.379C200.579 478.911 204.005 475.987 208.545 475.241C213.088 475.987 216.514 478.911 216.712 482.45Z" fill="#44283E"/>
<path d="M271.898 448.93C267.848 449.722 213.694 462.64 206.653 470.631C204.761 472.778 209.467 473.984 211.569 473.546L271.898 460.977V448.93H271.898Z" fill="#44283E"/>
<path d="M271.898 448.93L271.899 455.183C262.857 456.821 215.008 465.701 207.154 471.326C206.683 471.662 206.624 472.153 206.705 472.515C206.139 472.025 205.988 471.386 206.654 470.632C213.694 462.641 267.85 449.722 271.898 448.93Z" fill="#69698E"/>
<path d="M271.856 448.93V450.254C267.948 451.021 216.154 463.16 206.256 471.188C206.326 471.013 206.443 470.826 206.612 470.633C213.653 462.641 267.809 449.722 271.856 448.93Z" fill="#69698E"/>
<path d="M344.579 471.957H339.625V479.91H344.579V471.957Z" fill="#44283E"/>
<path d="M344.578 471.957H342.715V479.91H344.578V471.957Z" fill="#49363E"/>
<path d="M344.008 485.116C344.008 489.531 347.239 493.109 351.226 493.109C355.213 493.109 358.444 489.531 358.444 485.116C358.444 480.703 355.213 477.124 351.226 477.124C347.239 477.124 344.008 480.703 344.008 485.116Z" fill="#2D2D3F"/>
<path d="M347.616 485.116C347.616 487.324 349.233 489.113 351.225 489.113C353.219 489.113 354.835 487.324 354.835 485.116C354.835 482.91 353.219 481.12 351.225 481.12C349.233 481.12 347.616 482.91 347.616 485.116Z" fill="#1D1D28"/>
<path d="M338.729 482.45H359.64C359.412 478.338 354.821 475.056 349.185 475.056C348.399 475.056 347.633 475.119 346.894 475.241C342.352 475.987 338.925 478.911 338.729 482.45Z" fill="#69698E"/>
<path d="M338.729 482.45H355.061C354.861 478.911 351.435 475.987 346.895 475.241C342.352 475.987 338.925 478.911 338.729 482.45Z" fill="#44283E"/>
<path d="M283.542 448.93C287.592 449.722 341.747 462.64 348.787 470.631C350.679 472.778 345.973 473.984 343.871 473.546L283.542 460.977V448.93Z" fill="#44283E"/>
<path d="M283.542 448.93L283.542 455.183C292.583 456.821 340.432 465.701 348.286 471.326C348.757 471.662 348.816 472.153 348.734 472.515C349.3 472.025 349.452 471.386 348.786 470.632C341.747 462.641 287.59 449.722 283.542 448.93Z" fill="#69698E"/>
<path d="M283.583 448.93V450.254C287.492 451.021 339.286 463.16 349.184 471.188C349.114 471.013 348.997 470.826 348.827 470.633C341.787 462.641 287.631 449.722 283.583 448.93Z" fill="#69698E"/>
<path d="M335.628 300.274C333.417 298.777 328.774 298.508 326.256 298.508H281.732C283.231 302.835 284.447 307.307 285.712 311.75H327.352C327.37 311.754 327.388 311.76 327.406 311.765C327.406 311.765 327.406 311.765 327.408 311.765C327.416 311.77 327.422 311.774 327.43 311.781C327.432 311.778 327.434 311.781 327.436 311.785C327.562 311.896 327.691 312.015 327.787 312.121C327.789 312.123 327.791 312.127 327.791 312.127C327.801 312.143 327.809 312.158 327.819 312.174C327.91 312.33 327.994 312.492 328.074 312.657C328.076 312.659 328.076 312.659 328.076 312.662C328.172 312.99 328.254 313.321 328.321 313.659C328.321 313.661 328.321 313.661 328.321 313.661C328.373 314.723 328.337 315.795 328.337 316.854V360.313C328.337 363.922 331.058 366.935 334.317 366.935C334.801 366.935 335.271 366.868 335.724 366.74C338.323 366.027 340.297 363.385 340.297 360.313V314.44C340.297 308.764 340.057 303.275 335.628 300.274Z" fill="#553D57"/>
<path d="M327.494 311.706C327.45 311.646 327.428 311.615 327.422 311.604C327.428 311.607 327.46 311.648 327.504 311.708C327.502 311.706 327.497 311.706 327.494 311.706Z" fill="#553D57"/>
<path d="M327.53 311.757C327.53 311.755 327.528 311.755 327.528 311.752C327.532 311.752 327.534 311.752 327.538 311.755C327.541 311.757 327.542 311.761 327.545 311.764C327.54 311.761 327.534 311.76 327.53 311.757Z" fill="#553D57"/>
<path d="M327.654 311.922C327.626 311.885 327.602 311.853 327.582 311.824C327.583 311.825 327.587 311.825 327.592 311.828C327.613 311.859 327.635 311.892 327.657 311.925C327.655 311.922 327.654 311.922 327.654 311.922Z" fill="#553D57"/>
<path d="M331.879 305.129C329.671 303.633 324.378 303.363 321.859 303.363H283.297C284.138 306.142 284.915 308.952 285.712 311.75H327.352C327.37 311.754 327.388 311.761 327.406 311.765C327.406 311.765 327.406 311.765 327.408 311.765C327.416 311.77 327.422 311.775 327.43 311.781C327.432 311.779 327.434 311.781 327.436 311.786C327.562 311.897 327.691 312.015 327.787 312.121C327.789 312.124 327.791 312.128 327.791 312.128C327.801 312.143 327.809 312.159 327.819 312.174C327.91 312.331 327.994 312.493 328.074 312.657C328.076 312.66 328.076 312.66 328.076 312.662C328.172 312.991 328.254 313.322 328.321 313.659C328.321 313.661 328.321 313.661 328.321 313.661C328.373 314.723 328.337 315.796 328.337 316.855V360.314C328.337 363.922 331.058 366.935 334.317 366.935C334.801 366.935 335.271 366.869 335.724 366.741C335.841 366.235 335.901 365.71 335.901 365.17V319.297C335.901 313.619 336.31 308.131 331.879 305.129Z" fill="#44283E"/>
<path d="M329.886 302.425C334.931 302.506 337.223 307.615 337.112 312.633C337.088 313.701 338.583 313.698 338.606 312.633C338.673 309.637 338.087 306.503 336.345 304.13C334.737 301.939 332.417 300.811 329.886 300.77C328.921 300.755 328.922 302.41 329.886 302.425Z" fill="#717199"/>
<path d="M197.157 196.673C197.167 201.767 200.906 205.888 205.507 205.877L242.781 205.782C247.382 205.771 251.104 201.631 251.093 196.537L251.063 181.773C251.052 176.678 247.314 172.558 242.713 172.57L205.439 172.663C200.837 172.675 197.116 176.814 197.126 181.91L197.157 196.673Z" fill="#38B6FF"/>
<path opacity="0.2" d="M197.178 197.361C197.504 202.133 201.111 205.888 205.502 205.877L242.776 205.783C247.378 205.771 251.1 201.632 251.089 196.537L251.06 181.774C251.05 176.876 247.594 172.879 243.24 172.588C243.256 172.816 243.264 173.045 243.265 173.276L243.296 188.039C243.306 193.134 239.585 197.273 234.983 197.285L197.709 197.379C197.531 197.38 197.354 197.373 197.178 197.361Z" fill="#663445"/>
<path d="M296.377 339.298C296.117 345.716 296.52 354.167 294.909 360.902C294.7 361.777 294.457 362.623 294.174 363.432C294.159 363.485 294.139 363.539 294.119 363.593C294 363.929 291.18 381.715 291.043 382.037C277.718 382.22 259.902 382.571 243.704 382.724C234.562 382.809 225.935 382.832 218.921 382.724C208.837 382.571 202.083 382.146 201.922 381.259C197.753 381.259 194.162 377.174 193.775 371.828L193.224 364.221L193.055 361.871L182.376 214.51C182.339 214.003 182.332 213.503 182.354 213.011C182.568 208.08 185.617 204.041 189.628 203.685C190.557 203.246 194.196 202.613 198.682 201.974C200.699 201.689 202.884 201.401 205.073 201.128C210.385 200.467 235.269 199.797 250.126 200.865C250.128 200.862 250.128 200.862 250.131 200.865C252.775 201.052 255.102 201.299 256.944 201.608C269.615 203.734 275.498 211.772 277.67 225.968C277.743 226.455 277.82 226.943 277.895 227.434C278.551 231.68 279.218 235.923 279.896 240.172C280.187 241.983 280.477 243.794 280.77 245.608C282.044 253.466 283.359 261.342 284.706 269.241C284.922 270.519 285.142 271.796 285.359 273.076C285.45 273.597 285.544 274.124 285.643 274.648C288.357 289.104 294.173 303.397 295.527 318C295.772 320.654 295.996 323.335 296.162 326.029C296.434 330.438 296.553 334.881 296.377 339.298Z" fill="#38B6FF"/>
<path opacity="0.2" d="M273.87 352.784C272.664 356.077 270.597 358.748 267.889 360.901C248.359 376.42 195.552 364.83 193.224 364.221L193.055 361.871L182.376 214.51C182.339 214.003 182.332 213.503 182.354 213.011C183.809 212.567 185.28 212.077 186.744 211.585C190.317 210.378 193.857 209.147 197.101 208.494C197.828 208.346 198.541 208.229 199.235 208.146C210.44 206.82 221.249 208.039 232.26 208.752C241.88 209.376 253.296 209.243 261.192 216.209C269.22 223.292 269.243 235.969 270.532 246.051C273.495 269.189 275.873 293.681 275.851 317.68C275.84 328.373 277.419 343.095 273.87 352.784Z" fill="#663445"/>
<path d="M357.217 370.824V372.806C357.217 376.927 353.419 380.464 348.012 381.961C346.236 382.45 344.29 382.723 342.245 382.723H218.921C208.836 382.57 202.083 382.146 201.922 381.258C197.752 381.258 194.162 377.174 193.774 371.828L193.224 364.22L193.055 361.87C195.012 361.249 197.202 360.9 199.518 360.9H342.245C350.514 360.901 357.217 365.342 357.217 370.824Z" fill="#38B6FF"/>
<path d="M419.473 269.975C419.473 270.53 419.461 271.079 419.435 271.621C419.435 271.638 419.434 271.655 419.433 271.672C419.433 271.681 419.433 271.689 419.431 271.698C419.431 271.707 419.431 271.717 419.43 271.725C419.424 271.86 419.417 271.995 419.408 272.128C419.223 275.238 418.642 278.151 417.75 280.723C417.097 282.607 416.277 284.309 415.324 285.771C414.333 287.294 413.197 288.557 411.955 289.497H401.473C400.326 288.629 399.269 287.485 398.333 286.115C395.65 282.191 393.955 276.415 393.955 269.975C393.955 268.266 394.075 266.604 394.3 265.01H419.127C419.304 266.258 419.415 267.548 419.456 268.87C419.467 269.237 419.473 269.605 419.473 269.975Z" fill="#FF2E2E"/>
<path d="M419.418 271.53C419.379 271.351 419.44 271.841 419.433 271.656C419.426 271.472 419.381 271.961 419.415 271.775C419.47 271.466 419.317 271.95 419.431 271.723C419.455 271.675 419.484 271.629 419.512 271.584C419.624 271.404 419.359 271.79 419.492 271.617C419.585 271.496 419.69 271.387 419.796 271.281C419.846 271.231 419.898 271.184 419.95 271.136C420.136 270.966 419.777 271.278 419.976 271.114C420.099 271.012 420.226 270.917 420.354 270.825C420.66 270.603 420.98 270.406 421.303 270.219C421.623 270.034 421.952 269.866 422.284 269.708C422.093 269.799 422.372 269.67 422.387 269.663C422.473 269.624 422.558 269.588 422.643 269.552C422.841 269.468 423.042 269.39 423.242 269.316C423.572 269.193 423.905 269.087 424.242 268.995C424.399 268.953 424.556 268.916 424.714 268.882C424.789 268.866 424.865 268.852 424.94 268.838C425.123 268.805 424.749 268.859 425.038 268.825C425.768 268.74 426.262 268.851 426.954 269.128C427.252 269.247 426.794 269.041 427.078 269.185C427.166 269.229 427.25 269.28 427.334 269.329C427.498 269.426 427.653 269.541 427.804 269.661C427.641 269.532 427.875 269.731 427.888 269.744C427.956 269.809 428.021 269.879 428.084 269.948C428.148 270.018 428.207 270.092 428.266 270.166C428.338 270.264 428.342 270.266 428.279 270.175C428.315 270.227 428.349 270.28 428.382 270.334C428.484 270.496 428.571 270.668 428.652 270.842C428.663 270.864 428.777 271.161 428.697 270.942C428.731 271.034 428.759 271.128 428.787 271.223C428.844 271.415 428.884 271.612 428.918 271.811C428.974 272.14 428.901 271.593 428.932 271.93C428.945 272.07 428.948 272.21 428.951 272.351C428.965 273.131 428.707 274.101 428.411 274.794C427.706 276.446 426.513 277.483 425.023 278.339C424.255 278.781 423.605 279.052 422.729 279.367C421.903 279.665 421.061 279.906 420.216 280.124C419.039 280.428 417.798 280.615 416.671 281.109C415.98 281.411 415.377 281.81 414.946 282.498C414.474 283.253 414.586 284.217 414.895 285.008C415.532 286.638 417.075 287.032 418.465 286.366C419.006 286.106 419.517 285.511 419.635 284.859C419.806 283.905 419.324 283.164 418.643 282.643C418.2 282.306 417.55 282.551 417.294 283.035C417.007 283.577 417.206 284.192 417.648 284.528C417.887 284.711 417.521 284.395 417.711 284.588C417.888 284.769 417.609 284.401 417.73 284.601C417.847 284.796 417.665 284.365 417.722 284.574C417.652 284.317 417.709 284.386 417.704 284.513C417.716 284.18 417.657 284.519 417.771 284.234C417.744 284.303 417.63 284.47 417.808 284.214C417.773 284.265 417.731 284.308 417.69 284.352C417.574 284.473 417.874 284.223 417.642 284.381C417.588 284.419 417.529 284.449 417.47 284.48C417.714 284.352 417.514 284.453 417.456 284.473C417.391 284.496 417.324 284.512 417.258 284.527C417.024 284.58 417.485 284.506 417.247 284.523C417.178 284.528 417.11 284.524 417.041 284.52C416.805 284.507 417.265 284.57 417.033 284.513C416.978 284.499 416.767 284.406 417.012 284.523C416.953 284.495 416.715 284.305 416.92 284.488C416.864 284.438 416.816 284.378 416.768 284.318C416.924 284.515 416.778 284.304 416.753 284.253C416.71 284.166 416.669 284.079 416.631 283.99C416.728 284.218 416.633 283.969 416.621 283.924C416.603 283.861 416.562 283.594 416.601 283.914C416.592 283.844 416.593 283.775 416.593 283.705C416.595 283.464 416.545 283.964 416.59 283.737C416.646 283.45 416.519 283.865 416.591 283.706C416.616 283.65 416.649 283.598 416.682 283.546C416.523 283.8 416.629 283.63 416.679 283.572C416.721 283.524 416.768 283.48 416.814 283.437C416.603 283.634 416.767 283.482 416.819 283.444C416.931 283.362 417.051 283.294 417.172 283.228C417.216 283.205 417.438 283.102 417.196 283.212C417.286 283.171 417.378 283.135 417.47 283.099C418.647 282.639 419.926 282.446 421.138 282.123C422.882 281.658 424.612 281.049 426.203 280.116C427.772 279.195 429.181 277.849 430.022 276.097C430.866 274.343 431.258 272.162 430.565 270.268C429.879 268.389 428.374 267.132 426.588 266.753C425.119 266.441 423.676 266.818 422.291 267.375C421.136 267.84 419.979 268.422 418.981 269.228C418.155 269.895 417.238 270.858 417.517 272.11C417.822 273.477 419.723 272.897 419.418 271.53Z" fill="#FF2E2E"/>
<path d="M412.05 267.749C412.05 278.152 407.029 286.585 400.837 286.585C399.977 286.585 399.139 286.423 398.334 286.114C395.65 282.19 393.956 276.415 393.956 269.975C393.956 268.265 394.076 266.603 394.301 265.009H411.932C412.01 265.904 412.05 266.819 412.05 267.749Z" fill="#FF5555"/>
<path opacity="0.5" d="M396.136 268.873C395.543 271.251 395.993 273.891 396.586 276.212C396.899 277.439 397.308 278.631 397.77 279.798C398.123 280.688 398.524 281.571 399.037 282.364C399.404 282.931 400.04 283.203 400.624 282.824C401.131 282.495 401.409 281.637 401.04 281.067C400.564 280.332 400.191 279.518 399.853 278.698C399.812 278.6 399.773 278.501 399.734 278.402C399.708 278.335 399.682 278.268 399.656 278.201C399.708 278.338 399.708 278.337 399.657 278.199C399.551 277.916 399.452 277.63 399.357 277.344C399.17 276.785 399.004 276.217 398.853 275.646C398.699 275.066 398.569 274.48 398.457 273.89C398.406 273.618 398.362 273.346 398.321 273.072C398.314 273.021 398.253 272.536 398.288 272.837C398.27 272.686 398.256 272.534 398.243 272.382C398.194 271.841 398.18 271.296 398.2 270.753C398.205 270.651 398.212 270.548 398.218 270.446C398.223 270.376 398.277 269.93 398.229 270.294C398.262 270.045 398.311 269.799 398.372 269.557C398.54 268.883 398.171 268.163 397.562 267.977C396.953 267.79 396.304 268.198 396.136 268.873Z" fill="#FC8F35"/>
</g>
<defs>
<clipPath id="clip0_6_178">
<rect width="631" height="524" fill="white"/>
</clipPath>
</defs>
</svg>
